<svg width="16" height="16" viewBox="0 0 16 16" fill="none" xmlns="http://www.w3.org/2000/svg">
<path d="M8.11634 14.4358V5.12667M7.03301 4.56821C7.14826 4.59407 7.2697 4.56237 7.35267 4.4794C7.43565 4.39643 7.4673 4.27494 7.44148 4.15974C7.33805 3.73722 6.95702 2.32239 6.56578 1.93114C6.07834 1.4437 5.285 1.44167 4.79998 1.9267C4.31498 2.4117 4.31694 3.20503 4.80442 3.6925C5.20206 4.09015 6.6105 4.46478 7.03301 4.56821ZM8.21606 4.1597C8.1902 4.27495 8.2219 4.39639 8.30487 4.47937C8.38784 4.56234 8.50933 4.59399 8.62453 4.56818C9.04705 4.46474 10.4619 4.08371 10.8531 3.69247C11.3406 3.20503 11.3426 2.4117 10.8576 1.92667C10.3726 1.44167 9.57924 1.44363 9.09176 1.93111C8.69412 2.32876 8.31949 3.73719 8.21606 4.1597ZM2.06543 8.38485H13.9345C14.1916 8.38485 14.4 8.17646 14.4 7.9194V5.59212C14.4 5.33506 14.1916 5.12667 13.9345 5.12667H2.06543C1.80837 5.12667 1.59998 5.33506 1.59998 5.59212V7.9194C1.59998 8.17646 1.80837 8.38485 2.06543 8.38485ZM13.2363 8.38485V13.9703C13.2363 14.2274 13.0279 14.4358 12.7709 14.4358H3.22907C2.972 14.4358 2.76361 14.2274 2.76361 13.9703V8.38485H13.2363Z" stroke="#4A72FF" stroke-width="2" stroke-linecap="round" />
</svg>
