<svg width="100" height="85" viewBox="0 0 100 85" fill="none" xmlns="http://www.w3.org/2000/svg">
<path d="M77.9704 1.16499C77.7991 1.35471 76.638 3.04324 75.3817 4.9215C65.141 20.2131 52.6543 29.2629 36.8936 32.7917C35.7895 33.0384 34.4762 33.304 33.9622 33.3799C32.4394 33.6076 31.6971 34.7649 32.3252 35.9222C32.725 36.6811 33.4673 36.757 35.7895 36.3206C45.0404 34.5941 53.587 30.8186 61.1818 25.108C62.9901 23.742 63.2376 23.6281 63.485 24.0645C63.5612 24.1973 63.9228 24.6337 64.2654 25.0131L64.8936 25.7151L66.0357 24.7475L67.1587 23.761L66.2831 22.7365L65.4075 21.7119L67.7488 19.3784C71.5557 15.6029 75.8956 10.2717 78.2369 6.53414C78.6937 5.81319 79.1125 5.22505 79.1696 5.20608C79.2457 5.20608 79.8358 5.79422 80.464 6.51517L81.6251 7.82425L80.9589 9.13334C79.8168 11.3151 79.4932 13.6677 79.9881 16.0392C81.3015 22.2242 88.2111 25.8479 93.9405 23.4005L94.8161 23.021L95.3681 23.5523C95.6536 23.8368 95.9011 24.1783 95.9011 24.3301C95.9011 25.0511 92.3416 30.7238 89.6196 34.3285C87.7733 36.757 83.2811 41.8225 82.9575 41.8225C82.8623 41.8225 82.6149 41.5949 82.4055 41.3293C82.1961 41.0637 81.7203 40.4945 81.3396 40.0961L80.6543 39.3372L79.5122 40.3237L78.3892 41.2913L79.4361 42.4866C80.0071 43.1506 80.483 43.7767 80.483 43.8715C80.483 44.1182 78.3321 45.8257 76.105 47.3624C69.9187 51.6122 62.3429 54.7806 54.4245 56.4122C52.3117 56.8486 51.7406 57.266 51.7406 58.3284C51.7406 59.2201 52.3688 59.8462 53.2444 59.8462C53.606 59.8462 54.8813 59.6185 56.0996 59.3529C67.1016 56.8865 76.4667 52.1055 84.3851 44.915C89.5054 40.2668 94.3403 34.0249 98.1662 27.176C100.051 23.7989 100.089 23.9886 97.2716 20.8203C95.7679 19.1317 95.3491 18.9989 93.9596 19.7768C93.4076 20.0993 92.4368 20.4977 91.8277 20.6685C88.7441 21.5602 85.1084 19.9096 83.776 17.0068C83.243 15.8685 82.9004 13.8005 83.0717 12.814C83.243 11.8464 84.1377 9.98709 84.8419 9.11436C85.8317 7.90014 85.7366 7.63453 83.1669 4.69383C79.7597 0.747601 79.8739 0.842461 79.0173 0.842461C78.5415 0.842461 78.1417 0.956295 77.9704 1.16499Z" fill="#4A72FF"/>
<path d="M68.3389 27.3658C67.806 27.8591 67.3491 28.3334 67.3491 28.4282C67.3491 28.5041 68.0534 29.3769 68.8909 30.3634C70.6231 32.3365 70.4137 32.2986 71.8984 30.9515C72.6027 30.3255 72.6598 30.1927 72.4504 29.9081C71.9555 29.2251 69.5381 26.4551 69.4429 26.4551C69.3858 26.4741 68.8909 26.8725 68.3389 27.3658Z" fill="#4A72FF"/>
<path d="M73.9542 33.7972C73.3641 34.3094 72.8882 34.7647 72.8882 34.8217C72.8692 34.8976 75.0772 37.5347 76.029 38.5782C76.048 38.6161 76.6 38.1987 77.2282 37.6485L78.3702 36.662L76.7523 34.7837C75.8386 33.7402 75.0963 32.9055 75.0772 32.9055C75.0392 32.9055 74.5443 33.3039 73.9542 33.7972Z" fill="#4A72FF"/>
<path d="M55.1669 36.5105C53.8535 37.1366 51.8168 37.9904 50.6366 38.4267C49.3613 38.901 48.3715 39.3943 48.2002 39.622C47.5911 40.4947 48.0479 41.6899 49.1329 42.0694C49.8181 42.316 58.3457 38.8821 59.2974 37.9904C60.2682 37.0797 59.5258 35.3532 58.1744 35.3912C57.8317 35.3912 56.4803 35.9034 55.1669 36.5105Z" fill="#4A72FF"/>
<path d="M0.708667 36.8707C-0.395345 37.9711 0.175695 39.0146 2.42179 40.0581C11.6726 44.3458 22.6176 46.4897 31.8875 45.8446C35.2566 45.598 38.6638 45.1616 39.7107 44.8391C40.4341 44.6114 40.7005 44.175 40.7005 43.2833C40.7005 42.847 40.5483 42.5055 40.2247 42.2019C39.7107 41.7087 39.6346 41.7087 35.1805 42.3158C31.9636 42.7521 25.3205 42.7521 21.8943 42.3347C16.2029 41.6138 9.78821 39.7735 4.00167 37.1933C2.93572 36.7189 1.88882 36.3205 1.6604 36.3205C1.45102 36.3205 1.01322 36.5672 0.708667 36.8707Z" fill="#4A72FF"/>
<path d="M66.5687 41.3291C59.1642 46.0911 52.0262 49.1836 44.6978 50.7963C41.0051 51.6121 38.6638 51.8967 34.7998 51.9915C32.7631 52.0484 30.8977 52.1243 30.6502 52.1812C29.451 52.4279 29.0513 53.9457 29.965 54.8563L30.4599 55.3496L34.5714 55.2358C40.3769 55.084 45.326 54.2492 50.7889 52.5417C56.4041 50.7583 63.5802 47.2485 69.3097 43.435C71.0037 42.3157 71.3083 41.405 70.3375 40.3426C69.6523 39.6026 68.967 39.7734 66.5687 41.3291Z" fill="#4A72FF"/>
<path d="M13.3858 49.1836C12.2056 49.4303 11.7107 51.0239 12.5863 51.8397C13.3667 52.5797 22.9412 54.8943 24.0642 54.6097C24.6924 54.4579 25.2824 53.6611 25.2824 52.9781C25.2824 52.0105 24.6353 51.5931 22.5034 51.2137C20.5809 50.8722 17.2498 50.0943 15.0037 49.4492C14.3185 49.2595 13.5951 49.1457 13.3858 49.1836Z" fill="#4A72FF"/>
<path d="M5.9787 83.7638L0.338684 68.8139H2.29017L7.0295 81.8631L11.8117 68.8139H13.7203L8.08031 83.7638H5.9787ZM22.0115 84.0201C20.5389 84.0201 19.2451 83.6998 18.13 83.0591C17.0291 82.4041 16.1641 81.4929 15.5351 80.3254C14.9203 79.1579 14.613 77.8124 14.613 76.2889C14.613 74.7654 14.9203 73.427 15.5351 72.2737C16.1641 71.1062 17.0291 70.195 18.13 69.54C19.2451 68.8851 20.5389 68.5576 22.0115 68.5576C23.4983 68.5576 24.7922 68.8851 25.893 69.54C27.0082 70.195 27.8731 71.1062 28.4879 72.2737C29.1026 73.427 29.41 74.7654 29.41 76.2889C29.41 77.8124 29.1026 79.1579 28.4879 80.3254C27.8731 81.4929 27.0082 82.4041 25.893 83.0591C24.7922 83.6998 23.4983 84.0201 22.0115 84.0201ZM22.0115 82.4397C23.1123 82.4397 24.0773 82.1977 24.9066 81.7136C25.75 81.2153 26.4005 80.5105 26.8581 79.5992C27.3298 78.6738 27.5657 77.5703 27.5657 76.2889C27.5657 75.0074 27.3298 73.9111 26.8581 72.9999C26.4005 72.0887 25.75 71.391 24.9066 70.9069C24.0773 70.4086 23.1123 70.1594 22.0115 70.1594C20.9106 70.1594 19.9385 70.4086 19.095 70.9069C18.2658 71.391 17.6153 72.0887 17.1435 72.9999C16.686 73.9111 16.4573 75.0074 16.4573 76.2889C16.4573 77.5703 16.686 78.6738 17.1435 79.5992C17.6153 80.5105 18.2658 81.2153 19.095 81.7136C19.9385 82.1977 20.9106 82.4397 22.0115 82.4397ZM37.4342 84.0201C36.4049 84.0201 35.4685 83.8208 34.6249 83.4221C33.7957 83.0093 33.131 82.3756 32.6306 81.5214C32.1302 80.6671 31.88 79.5779 31.88 78.2537V68.8139H33.6814V78.2751C33.6814 79.7274 34.0316 80.781 34.7322 81.4359C35.4327 82.0909 36.3477 82.4184 37.4771 82.4184C38.6066 82.4184 39.5144 82.0909 40.2006 81.4359C40.8869 80.781 41.23 79.7274 41.23 78.2751V68.8139H43.0314V78.2537C43.0314 79.5779 42.7812 80.6671 42.2808 81.5214C41.7804 82.3756 41.1085 83.0093 40.265 83.4221C39.4215 83.8208 38.4779 84.0201 37.4342 84.0201ZM52.6656 84.0201C51.1928 84.0201 49.9207 83.6998 48.8484 83.0591C47.7903 82.4041 46.9681 81.5 46.3823 80.3467C45.796 79.1792 45.503 77.8266 45.503 76.2889C45.503 74.7654 45.796 73.427 46.3823 72.2737C46.9681 71.1062 47.7903 70.195 48.8484 69.54C49.9207 68.8851 51.1928 68.5576 52.6656 68.5576C54.3812 68.5576 55.7751 68.9705 56.8474 69.7963C57.9338 70.6079 58.6273 71.7469 58.9275 73.2135H56.9332C56.7041 72.288 56.2323 71.5476 55.5178 70.9923C54.817 70.4228 53.8665 70.138 52.6656 70.138C51.5934 70.138 50.6567 70.3872 49.8563 70.8855C49.0556 71.3696 48.4337 72.0744 47.9906 72.9999C47.5617 73.9111 47.3473 75.0074 47.3473 76.2889C47.3473 77.5703 47.5617 78.6738 47.9906 79.5992C48.4337 80.5105 49.0556 81.2153 49.8563 81.7136C50.6567 82.1977 51.5934 82.4397 52.6656 82.4397C53.8665 82.4397 54.817 82.1692 55.5178 81.6281C56.2323 81.0729 56.7041 80.3396 56.9332 79.4284H58.9275C58.6273 80.8664 57.9338 81.9912 56.8474 82.8028C55.7751 83.6143 54.3812 84.0201 52.6656 84.0201ZM61.5164 83.7638V68.8139H63.3177V75.4132H71.1023V68.8139H72.9036V83.7638H71.1023V76.8869H63.3177V83.7638H61.5164ZM76.0715 83.7638V68.8139H85.3571V70.2875H77.8729V75.4987H84.7138V76.9509H77.8729V82.2902H85.3571V83.7638H76.0715ZM88.1759 83.7638V68.8139H93.0224C94.195 68.8139 95.1528 69.0061 95.896 69.3905C96.6398 69.775 97.19 70.3018 97.5473 70.971C97.905 71.6402 98.0834 72.3805 98.0834 73.1921C98.0834 74.1318 97.8261 74.979 97.3114 75.7336C96.8113 76.4882 96.0247 77.0221 94.9525 77.3354L98.2335 83.7638H96.1105L93.0653 77.5917H92.9366H89.9772V83.7638H88.1759ZM89.9772 76.1821H92.8938C94.0518 76.1821 94.8954 75.9044 95.4243 75.3492C95.9535 74.7939 96.2177 74.082 96.2177 73.2135C96.2177 72.3307 95.9535 71.633 95.4243 71.1205C94.9096 70.5937 94.0591 70.3303 92.8723 70.3303H89.9772V76.1821Z" fill="#0C1B4D"/>
</svg>
