<svg width="40" height="30" viewBox="0 0 40 30" fill="none" xmlns="http://www.w3.org/2000/svg">
<g clip-path="url(#clip0_5_1701)">
<path d="M25.531 7.138H16.781V22.862H25.531V7.138Z" fill="#FF5F00"/>
<path d="M17.3366 15C17.3352 13.4857 17.6784 11.9909 18.3401 10.6288C19.0018 9.26665 19.9648 8.07295 21.156 7.138C19.6808 5.97846 17.9092 5.25736 16.0435 5.05711C14.1778 4.85687 12.2935 5.18556 10.6058 6.00563C8.91813 6.8257 7.49522 8.10407 6.49972 9.69459C5.50423 11.2851 4.97632 13.1236 4.97632 15C4.97632 16.8764 5.50423 18.7149 6.49972 20.3054C7.49522 21.8959 8.91813 23.1743 10.6058 23.9944C12.2935 24.8144 14.1778 25.1431 16.0435 24.9429C17.9092 24.7427 19.6808 24.0215 21.156 22.862C19.9648 21.9271 19.0019 20.7333 18.3401 19.3712C17.6784 18.0091 17.3353 16.5143 17.3366 15Z" fill="#EB001B"/>
<path d="M37.3352 15C37.3353 16.8763 36.8074 18.7149 35.812 20.3054C34.8166 21.8959 33.3937 23.1743 31.7061 23.9943C30.0184 24.8144 28.1341 25.1431 26.2685 24.9429C24.4028 24.7427 22.6312 24.0215 21.156 22.862C22.3462 21.9261 23.3084 20.7322 23.97 19.3703C24.6316 18.0084 24.9754 16.5141 24.9754 15C24.9754 13.4859 24.6316 11.9916 23.97 10.6297C23.3084 9.26779 22.3462 8.07389 21.156 7.138C22.6312 5.97845 24.4028 5.25735 26.2685 5.05711C28.1341 4.85687 30.0184 5.18558 31.7061 6.00566C33.3937 6.82574 34.8166 8.1041 35.812 9.69462C36.8074 11.2851 37.3353 13.1237 37.3352 15Z" fill="#F79E1B"/>
<path d="M36.3812 21.1966V20.8747H36.511V20.8091H36.1804V20.8747H36.3103V21.1966H36.3812ZM37.023 21.1966V20.8085H36.9217L36.8051 21.0754L36.6885 20.8085H36.5871V21.1966H36.6587V20.9038L36.768 21.1563H36.8422L36.9515 20.9032V21.1966H37.023Z" fill="#F79E1B"/>
</g>
<defs>
<clipPath id="clip0_5_1701">
<rect width="39.5575" height="30" fill="white"/>
</clipPath>
</defs>
</svg>
