<svg width="67" height="20" viewBox="0 0 67 20" fill="none" xmlns="http://www.w3.org/2000/svg">
<path d="M15.5115 6.74749H11.1508C11.1508 6.00899 11.0666 5.51352 10.8991 5.26108C10.6395 4.88798 9.92344 4.701 8.75128 4.701C7.6127 4.701 6.85806 4.8084 6.48986 5.02361C6.12167 5.23969 5.93716 5.70906 5.93716 6.43172C5.93716 7.08594 6.10053 7.51722 6.42768 7.72345C6.66194 7.87021 6.97167 7.95621 7.35727 7.98188L8.23672 8.04606C10.1216 8.17485 11.2988 8.26598 11.7681 8.31776C13.2587 8.47265 14.3393 8.88168 15.0097 9.54445C15.5371 10.0617 15.8518 10.7378 15.9521 11.5721C16.011 12.0715 16.0401 12.6367 16.0401 13.2643C16.0401 14.7113 15.9061 15.7708 15.6387 16.4421C15.1531 17.6743 14.0623 18.4526 12.3653 18.7795C11.6541 18.9177 10.5665 18.9866 9.1033 18.9866C6.66111 18.9866 4.95946 18.8368 3.99834 18.5352C2.81913 18.1659 2.04127 17.4176 1.66521 16.291C1.4554 15.6638 1.35175 14.6189 1.35175 13.1565H5.71243C5.71243 13.3195 5.71285 13.4445 5.71285 13.5305C5.71285 14.3109 5.93012 14.8123 6.36423 15.0361C6.66484 15.1901 7.02764 15.271 7.45431 15.2809H9.05769C9.87575 15.2809 10.3978 15.2377 10.6229 15.1508C11.0239 14.9882 11.2872 14.7263 11.4128 14.3639C11.4796 14.1406 11.5127 13.8522 11.5127 13.4988C11.5127 12.7077 11.2329 12.2263 10.6739 12.0535C10.4645 11.9855 9.49264 11.89 7.75699 11.7698C6.363 11.6671 5.39483 11.5682 4.8529 11.4725C3.42532 11.1969 2.47374 10.6299 1.99899 9.7695C1.58145 9.03871 1.37289 7.93268 1.37289 6.45269C1.37289 5.32611 1.48567 4.42247 1.71123 3.74301C1.9368 3.06314 2.30042 2.54712 2.80213 2.19414C3.53727 1.65204 4.47807 1.33412 5.62287 1.23914C6.5757 1.15314 7.6326 1.1095 8.79523 1.1095C10.6254 1.1095 11.9298 1.21818 12.7073 1.43339C14.605 1.95967 15.5537 3.43324 15.5537 5.85496C15.5537 6.05349 15.5396 6.35042 15.5115 6.74749Z" fill="#444444"/>
<path d="M34.6878 18.9861V1.01398H41.5197H42.5919H43.4208C44.6187 1.01398 45.5325 1.11452 46.1607 1.31648C47.5969 1.78071 48.5606 2.73186 49.0544 4.16863C49.3089 4.92296 49.4367 6.05851 49.4367 7.57487C49.4367 9.39801 49.2952 10.7077 49.0154 11.5056C48.4552 13.0828 47.3026 13.9915 45.5615 14.2269C45.3567 14.2624 44.4856 14.2936 42.9477 14.3193L42.1698 14.3459H39.3753V18.9861H34.6878ZM39.3753 10.1767H42.2971C43.2238 10.1425 43.7874 10.0689 43.99 9.95381C44.267 9.79678 44.4533 9.48187 44.5457 9.00993C44.6049 8.69588 44.6344 8.22866 44.6344 7.60825C44.6344 6.84792 44.5755 6.28442 44.4574 5.91647C44.289 5.40089 43.8851 5.08726 43.2458 4.97302C43.1189 4.9559 42.8163 4.94649 42.3365 4.94649H39.3753V10.1767Z" fill="#444444"/>
<path d="M59.4418 15.8802H53.1746L52.3325 18.9861H47.4829L52.716 1.01398H59.7867L65.0837 18.9861H60.3361L59.4418 15.8802ZM58.5109 12.379L56.3146 4.58837L54.1834 12.379H58.5109Z" fill="#444444"/>
<path d="M28.2182 3.54274C30.1512 3.54274 31.8768 4.46179 33.0108 5.90114L34.0214 3.66554C32.4412 2.12436 30.2905 1.17407 27.9184 1.17407C24.2248 1.17407 21.0653 3.47599 19.7687 6.73462H17.7984L16.6349 9.30823H19.1696C19.1505 9.54698 19.1381 9.78573 19.1381 10.0296C19.1381 10.3244 19.1531 10.6162 19.1813 10.9042H17.9075L16.7444 13.4787H19.8293C21.1627 16.6547 24.2828 18.8843 27.9184 18.8843C29.7506 18.8843 31.4506 18.3178 32.8583 17.3499V14.1949C31.7247 15.5268 30.0666 16.3685 28.2182 16.3685C26.0575 16.3685 24.1568 15.2188 23.0502 13.4787H29.5093L30.6727 10.9042H22.0998C22.0555 10.5944 22.0318 10.2778 22.0318 9.95516C22.0318 9.73695 22.0426 9.52131 22.0634 9.30823H31.3938L32.5568 6.73462H22.8698C23.9412 4.82676 25.9347 3.54274 28.2182 3.54274Z" fill="#FFBE00"/>
<path d="M28.2177 3.61968C30.0599 3.61968 31.7856 4.46942 32.9524 5.94983L33.0279 6.04568L33.0789 5.93401L34.0889 3.69841L34.1114 3.64749L34.0728 3.60899C32.4117 1.98908 30.2258 1.09698 27.9179 1.09698C26.1156 1.09698 24.3816 1.64038 22.9026 2.66853C21.4584 3.67231 20.3505 5.06843 19.6995 6.70502L19.7684 6.6571H17.7981H17.7499L17.7301 6.7016L16.5669 9.27565L16.5173 9.3856H16.6346H19.1693L19.0946 9.30174C19.0735 9.56916 19.0631 9.80662 19.0631 10.0295C19.0631 10.3183 19.0776 10.6157 19.1062 10.9118L19.1808 10.8271H17.9071H17.8598L17.8399 10.8716L16.6761 13.4456L16.6267 13.5555H16.7441H19.8289L19.7601 13.509C21.1507 16.8211 24.3529 18.9612 27.9179 18.9612C29.705 18.9612 31.4271 18.4269 32.8994 17.4145L32.9322 17.3919V17.3499V14.1949V13.9899L32.8015 14.1439C31.6402 15.5083 29.9696 16.2905 28.2177 16.2905C26.157 16.2905 24.2485 15.223 23.1119 13.4358L23.0498 13.5555H29.5089H29.557L29.5769 13.5115L30.7404 10.9366L30.7902 10.8271H30.6724H22.0994L22.1736 10.893C22.1293 10.5811 22.1065 10.2661 22.1065 9.95509C22.1065 9.7433 22.1168 9.52851 22.1376 9.31586L22.0629 9.3856H31.3934H31.4415L31.4614 9.3411L32.6245 6.76707L32.6746 6.6571H32.5565H22.8694L22.9341 6.77306C24.0263 4.82798 26.0513 3.61968 28.2177 3.61968ZM22.8694 6.81156H32.5565L32.4885 6.7016L31.3258 9.27565L31.3934 9.23115H22.0629H21.9954L21.9879 9.30088C21.9672 9.51824 21.9568 9.73859 21.9568 9.95509C21.9568 10.2734 21.9801 10.5969 22.0252 10.9156L22.0352 10.9815H22.0994H30.6724L30.6048 10.8716L29.4417 13.4456L29.5089 13.4011H23.0498H22.9108L22.9872 13.5201C24.1511 15.3522 26.1068 16.4445 28.2177 16.4445C30.0123 16.4445 31.7243 15.6435 32.9143 14.2458L32.7828 14.1949V17.3499L32.816 17.2862C31.3685 18.281 29.6752 18.8068 27.9179 18.8068C24.4123 18.8068 21.2644 16.703 19.8977 13.4473L19.8778 13.4011H19.8289H16.7441L16.8125 13.5115L17.9751 10.9366L17.9071 10.9815H19.1808H19.2634L19.2555 10.8964C19.2273 10.6054 19.2124 10.3132 19.2124 10.0295C19.2124 9.81132 19.2227 9.57729 19.2438 9.31458L19.2505 9.23115H19.1693H16.6346L16.7022 9.3411L17.8656 6.76707L17.7981 6.81156H19.7684H19.8185L19.8372 6.76365C20.4778 5.15529 21.5666 3.78356 22.9864 2.79647C24.4401 1.78628 26.1458 1.25187 27.9179 1.25187C30.1877 1.25187 32.3363 2.12857 33.9695 3.72151L33.9529 3.63251L32.9433 5.86855L33.0689 5.85229C31.8727 4.3355 30.1052 3.46522 28.2177 3.46522C25.9974 3.46522 23.9238 4.70303 22.8043 6.69561L22.7392 6.81156H22.8694Z" fill="#FFBE00"/>
</svg>
