<svg width="30" height="30" viewBox="0 0 30 30" fill="none" xmlns="http://www.w3.org/2000/svg">
<path d="M11.0747 18L11.317 18M14.8283 17.9994L15.0706 17.9994M18.566 17.9994L18.8083 17.9994M25.6753 6.26471L25.6753 15.0013C23.9065 15.0509 22.4878 16.5004 22.4878 18.2812C22.4878 20.0621 23.9065 21.5116 25.6753 21.5612L25.6753 23.7353C25.6753 26.3668 23.5421 28.5 20.9106 28.5L9.08942 28.5C6.45795 28.5 4.32471 26.3668 4.32471 23.7353L4.32471 21.5612C6.09354 21.5116 7.51221 20.0621 7.51221 18.2812C7.51221 16.5004 6.09354 15.0509 4.32471 15.0013L4.32471 6.26472C4.32471 3.63325 6.45795 1.50002 9.08942 1.50002L20.9106 1.5C23.5421 1.5 25.6753 3.63323 25.6753 6.26471Z" stroke="#4A72FF" stroke-width="2" stroke-linecap="round" stroke-linejoin="round"/>
</svg>
