<svg width="50" height="14" viewBox="0 0 50 14" fill="none" xmlns="http://www.w3.org/2000/svg">
<g clip-path="url(#clip0_6_2519)">
<path d="M11.7001 11.3538H9.51294L10.881 2.6741H13.068L11.7001 11.3538Z" fill="#042F82"/>
<path d="M19.6287 2.88637C19.1973 2.71075 18.513 2.51685 17.667 2.51685C15.5071 2.51685 13.9861 3.6987 13.9767 5.38838C13.9588 6.63505 15.0657 7.32747 15.8936 7.74312C16.7398 8.16789 17.0275 8.44512 17.0275 8.82373C17.0188 9.40519 16.3437 9.67324 15.714 9.67324C14.8407 9.67324 14.3729 9.53505 13.6618 9.21154L13.3738 9.07286L13.0677 11.0212C13.5807 11.261 14.5258 11.4739 15.5071 11.4832C17.802 11.4832 19.2961 10.3196 19.3138 8.51901C19.3225 7.53092 18.738 6.77385 17.4779 6.15517C16.7129 5.75804 16.2444 5.49025 16.2444 5.0839C16.2534 4.7145 16.6407 4.33613 17.5042 4.33613C18.2152 4.3176 18.7377 4.49298 19.1334 4.66847L19.3313 4.76064L19.6287 2.88637Z" fill="#042F82"/>
<path d="M22.5357 8.27886C22.7158 7.78023 23.4089 5.85037 23.4089 5.85037C23.3998 5.86889 23.5886 5.34253 23.6966 5.01939L23.8495 5.76728C23.8495 5.76728 24.2637 7.84491 24.3536 8.27886C24.0118 8.27886 22.9677 8.27886 22.5357 8.27886ZM25.2355 2.6741H23.5437C23.022 2.6741 22.6256 2.83095 22.4005 3.39426L19.1517 11.3536H21.4467C21.4467 11.3536 21.8245 10.2824 21.9057 10.0517C22.1575 10.0517 24.39 10.0517 24.7139 10.0517C24.7767 10.3564 24.9748 11.3536 24.9748 11.3536H27L25.2355 2.6741Z" fill="#042F82"/>
<path d="M7.68598 2.6741L5.54401 8.59281L5.30995 7.39242C4.91392 6.00735 3.67198 4.50247 2.28601 3.75421L4.24798 11.3445H6.56087L9.99875 2.6741H7.68598Z" fill="#042F82"/>
<path d="M3.55497 2.6741H0.0360006L0 2.84948C2.74502 3.56976 4.563 5.30596 5.30991 7.39279L4.54494 3.40371C4.419 2.84936 4.03194 2.69239 3.55497 2.6741Z" fill="#FAA61A"/>
</g>
<g clip-path="url(#clip1_6_2519)">
<path d="M43.6175 3.59311H39.636V10.4068H43.6175V3.59311Z" fill="#FF5F00"/>
<path d="M39.8888 6.99999C39.8881 6.34378 40.0443 5.69603 40.3454 5.10579C40.6465 4.51554 41.0847 3.99827 41.6267 3.59313C40.9555 3.09066 40.1493 2.77818 39.3003 2.69141C38.4514 2.60463 37.594 2.74707 36.826 3.10243C36.0581 3.4578 35.4106 4.01175 34.9576 4.70098C34.5046 5.39021 34.2644 6.1869 34.2644 6.99999C34.2644 7.81309 34.5046 8.60978 34.9576 9.299C35.4106 9.98823 36.0581 10.5422 36.826 10.8976C37.594 11.2529 38.4514 11.3953 39.3003 11.3086C40.1493 11.2218 40.9555 10.9093 41.6267 10.4069C41.0847 10.0017 40.6465 9.48444 40.3454 8.89419C40.0443 8.30395 39.8881 7.6562 39.8888 6.99999Z" fill="#EB001B"/>
<path d="M48.9888 6.99999C48.9888 7.81307 48.7486 8.60976 48.2957 9.29899C47.8427 9.98822 47.1953 10.5422 46.4273 10.8975C45.6594 11.2529 44.802 11.3953 43.953 11.3086C43.1041 11.2218 42.298 10.9093 41.6267 10.4069C42.1683 10.0013 42.6061 9.48395 42.9072 8.8938C43.2082 8.30364 43.3647 7.6561 43.3647 6.99999C43.3647 6.34388 43.2082 5.69634 42.9072 5.10618C42.6061 4.51603 42.1683 3.99867 41.6267 3.59312C42.298 3.09065 43.1041 2.77817 43.953 2.6914C44.802 2.60463 45.6594 2.74707 46.4273 3.10244C47.1953 3.45781 47.8427 4.01176 48.2957 4.70099C48.7486 5.39022 48.9888 6.18691 48.9888 6.99999Z" fill="#F79E1B"/>
<path d="M48.5547 9.68516V9.54566H48.6138V9.51724H48.4634V9.54566H48.5225V9.68516H48.5547ZM48.8468 9.68516V9.51697H48.8007L48.7476 9.63265L48.6946 9.51697H48.6485V9.68516H48.681V9.55829L48.7307 9.66767H48.7645L48.8142 9.55801V9.68516H48.8468Z" fill="#F79E1B"/>
</g>
<defs>
<clipPath id="clip0_6_2519">
<rect width="27" height="9" fill="white" transform="translate(0 2.5)"/>
</clipPath>
<clipPath id="clip1_6_2519">
<rect width="18" height="13" fill="white" transform="translate(32 0.5)"/>
</clipPath>
</defs>
</svg>
