<svg width="50" height="30" viewBox="0 0 50 30" fill="none" xmlns="http://www.w3.org/2000/svg">
<g clip-path="url(#clip0_5_1725)">
<path d="M44.7249 0H4.50121C4.33369 0 4.16586 0 3.99864 0.00093427C3.85728 0.00189685 3.71625 0.00339735 3.57522 0.0070778C3.26764 0.0150333 2.95742 0.032388 2.65369 0.0845939C2.3451 0.137706 2.05795 0.224338 1.77781 0.360741C1.50241 0.494682 1.25028 0.669872 1.03178 0.878921C0.813182 1.08797 0.629996 1.3287 0.489971 1.59236C0.347312 1.86027 0.256666 2.13498 0.201515 2.43032C0.146633 2.72088 0.128365 3.01749 0.120076 3.31134C0.116286 3.44621 0.114661 3.58108 0.11374 3.71593C0.112764 3.8762 0.113089 4.03636 0.113089 4.19691V25.8034C0.113089 25.964 0.112764 26.1238 0.11374 26.2844C0.114661 26.4193 0.116286 26.5541 0.120076 26.689C0.128365 26.9826 0.146633 27.2792 0.201515 27.5697C0.256666 27.8651 0.347312 28.1397 0.489971 28.4077C0.629996 28.6713 0.813182 28.9124 1.03178 29.1211C1.25028 29.3305 1.50241 29.5057 1.77781 29.6393C2.05795 29.776 2.3451 29.8627 2.65369 29.9158C2.95742 29.9676 3.26764 29.9853 3.57522 29.9933C3.71625 29.9963 3.85728 29.9981 3.99864 29.9988C4.16586 30 4.33369 30 4.50121 30H44.7249C44.8921 30 45.06 30 45.2272 29.9988C45.3682 29.9981 45.5092 29.9963 45.6509 29.9933C45.9578 29.9853 46.268 29.9676 46.5725 29.9158C46.8806 29.8627 47.1679 29.776 47.448 29.6393C47.7237 29.5057 47.9751 29.3305 48.1941 29.1211C48.4123 28.9124 48.5955 28.6713 48.7359 28.4077C48.8788 28.1397 48.9694 27.8651 49.0243 27.5697C49.0792 27.2792 49.097 26.9826 49.1053 26.689C49.1092 26.5541 49.1111 26.4193 49.1117 26.2844C49.113 26.1238 49.113 25.964 49.113 25.8034V4.19691C49.113 4.03636 49.113 3.8762 49.1117 3.71593C49.1111 3.58108 49.1092 3.44621 49.1053 3.31134C49.097 3.01749 49.0792 2.72088 49.0243 2.43032C48.9694 2.13498 48.8788 1.86027 48.7359 1.59236C48.5955 1.3287 48.4123 1.08797 48.1941 0.878921C47.9751 0.669872 47.7237 0.494682 47.448 0.360741C47.1679 0.224338 46.8806 0.137706 46.5725 0.0845939C46.268 0.032388 45.9578 0.0150333 45.6509 0.0070778C45.5092 0.00339735 45.3682 0.00189685 45.2272 0.00093427C45.06 0 44.8921 0 44.7249 0Z" fill="#EBEBEB"/>
<path d="M44.764 1L45.2598 1.00091C45.3941 1.00181 45.5284 1.0032 45.6635 1.00671C45.8984 1.01277 46.1732 1.02491 46.4293 1.06874C46.652 1.10702 46.8387 1.16522 47.018 1.25231C47.1949 1.33812 47.357 1.45057 47.4985 1.58547C47.6406 1.72128 47.7586 1.87626 47.8496 2.047C47.9404 2.21673 48.001 2.39412 48.0408 2.60821C48.0866 2.85005 48.0993 3.11306 48.1057 3.33867C48.1094 3.46601 48.1111 3.59335 48.1118 3.72373C48.1131 3.88139 48.113 4.03897 48.113 4.19695V25.8034C48.113 25.9613 48.1131 26.1186 48.1118 26.2797C48.1111 26.407 48.1094 26.5343 48.1057 26.6619C48.0993 26.8872 48.0866 27.15 48.0403 27.3947C48.001 27.6059 47.9404 27.7833 47.8492 27.9539C47.7584 28.1242 47.6406 28.279 47.4991 28.414C47.3568 28.5499 47.1952 28.662 47.0162 28.7486C46.8383 28.8352 46.6519 28.8934 46.4314 28.9313C46.1701 28.9757 45.8837 28.9879 45.6681 28.9935C45.5324 28.9964 45.3974 28.9982 45.2591 28.9988C45.0943 29 44.9289 29 44.764 29H4.4621C4.4599 29 4.45776 29 4.45554 29C4.29258 29 4.1293 29 3.96337 28.9988C3.82809 28.9982 3.6931 28.9965 3.56259 28.9936C3.34204 28.9879 3.05554 28.9757 2.79633 28.9315C2.57397 28.8934 2.38754 28.8352 2.20732 28.7474C2.02998 28.6616 1.86853 28.5496 1.72613 28.4134C1.58483 28.2788 1.4674 28.1245 1.37661 27.9539C1.28572 27.7835 1.22492 27.6055 1.18494 27.3919C1.13872 27.1477 1.12603 26.8858 1.11968 26.6621C1.11606 26.534 1.11455 26.4059 1.11369 26.2786L1.11304 25.9026L1.11307 25.8034V4.19695L1.11304 4.09769L1.11366 3.72254C1.11455 3.59443 1.11606 3.46635 1.11968 3.33836C1.12603 3.11439 1.13872 2.85245 1.18532 2.6062C1.22495 2.39446 1.28572 2.2165 1.37708 2.04525C1.46716 1.87597 1.5848 1.72145 1.72685 1.5859C1.86833 1.4508 2.0303 1.33849 2.20878 1.25186C2.38707 1.1652 2.57384 1.10702 2.79621 1.06882C3.05242 1.02489 3.32741 1.01277 3.56292 1.00668C3.69717 1.0032 3.83141 1.00181 3.96465 1.00093L4.4621 1H44.764Z" fill="white"/>
<path d="M14.5108 10.0903C14.8961 9.5884 15.1576 8.91455 15.0886 8.22595C14.5246 8.25516 13.8363 8.61345 13.4378 9.11571C13.08 9.54581 12.7633 10.2479 12.8459 10.9076C13.479 10.9648 14.1116 10.578 14.5108 10.0903Z" fill="black"/>
<path d="M15.0814 11.0364C14.1619 10.9794 13.3801 11.5798 12.941 11.5798C12.5017 11.5798 11.8293 11.0652 11.102 11.079C10.1554 11.0935 9.27709 11.6508 8.79674 12.5373C7.80874 14.3106 8.536 16.941 9.49678 18.3853C9.96336 19.0998 10.5257 19.8865 11.2666 19.8583C11.9666 19.8296 12.241 19.3862 13.092 19.3862C13.9423 19.3862 14.1894 19.8583 14.9305 19.844C15.6989 19.8296 16.1794 19.1291 16.646 18.4139C17.1812 17.5994 17.4003 16.8129 17.4141 16.7697C17.4003 16.7554 15.9323 16.1689 15.9186 14.4104C15.9048 12.9379 17.0712 12.2375 17.1261 12.1941C16.4674 11.1795 15.4382 11.0652 15.0814 11.0364Z" fill="black"/>
<path d="M23.0876 9.0437C25.0861 9.0437 26.4777 10.4783 26.4777 12.5669C26.4777 14.6629 25.0575 16.1049 23.0375 16.1049H20.8248V19.7693H19.2261V9.0437L23.0876 9.0437ZM20.8248 14.7075H22.6591C24.051 14.7075 24.8432 13.9271 24.8432 12.5743C24.8432 11.2216 24.051 10.4486 22.6663 10.4486H20.8248V14.7075Z" fill="black"/>
<path d="M26.8954 17.5469C26.8954 16.1792 27.9019 15.3393 29.6864 15.2352L31.7419 15.1089V14.5069C31.7419 13.6372 31.178 13.117 30.236 13.117C29.3436 13.117 28.7868 13.5628 28.6514 14.2616H27.1953C27.2809 12.8493 28.4371 11.8087 30.293 11.8087C32.1131 11.8087 33.2764 12.8122 33.2764 14.3805V19.7693H31.7989V18.4834H31.7634C31.328 19.3531 30.3786 19.903 29.3937 19.903C27.9233 19.903 26.8954 18.9517 26.8954 17.5469ZM31.7419 16.8408V16.2239L29.8932 16.3428C28.9724 16.4097 28.4515 16.8334 28.4515 17.5023C28.4515 18.1861 28.9939 18.6321 29.8219 18.6321C30.8996 18.6321 31.7419 17.859 31.7419 16.8408Z" fill="black"/>
<path d="M34.6713 22.6459V21.3451C34.7853 21.3748 35.0422 21.3748 35.1708 21.3748C35.8845 21.3748 36.27 21.0626 36.5054 20.2599C36.5054 20.245 36.6412 19.7842 36.6412 19.7768L33.929 11.95H35.599L37.4978 18.3125H37.5261L39.425 11.95H41.0523L38.2398 20.178C37.5977 22.0735 36.8554 22.683 35.2994 22.683C35.1708 22.683 34.7853 22.6681 34.6713 22.6459Z" fill="black"/>
</g>
<defs>
<clipPath id="clip0_5_1725">
<rect width="49" height="30" fill="white" transform="translate(0.113037)"/>
</clipPath>
</defs>
</svg>
