<svg width="29" height="18" viewBox="0 0 29 18" fill="none" xmlns="http://www.w3.org/2000/svg">
<g clip-path="url(#clip0_6_2495)">
<path d="M5.48107 4.22669C5.8225 3.78011 6.05419 3.18049 5.99308 2.56775C5.49328 2.59374 4.88337 2.91256 4.53026 3.35949C4.2132 3.74221 3.93259 4.36694 4.00574 4.954C4.56679 5.00489 5.12733 4.66073 5.48107 4.22669Z" fill="black"/>
<path d="M5.98652 5.06865C5.17174 5.01789 4.47898 5.55222 4.08987 5.55222C3.70056 5.55222 3.10472 5.09422 2.46027 5.10657C1.62148 5.11945 0.843173 5.61539 0.417521 6.40418C-0.457972 7.98213 0.186479 10.3228 1.03785 11.6079C1.45129 12.2438 1.94957 12.9438 2.60611 12.9187C3.22644 12.8932 3.46959 12.4986 4.22362 12.4986C4.9771 12.4986 5.19613 12.9187 5.85278 12.906C6.53375 12.8932 6.95948 12.2698 7.37291 11.6334C7.84721 10.9086 8.04137 10.2088 8.05359 10.1704C8.04137 10.1576 6.74049 9.63576 6.72843 8.07092C6.71614 6.76066 7.74976 6.13742 7.79841 6.09877C7.21472 5.19601 6.3027 5.09422 5.98652 5.06865Z" fill="black"/>
<path d="M13.0811 3.29544C14.852 3.29544 16.0852 4.57197 16.0852 6.43049C16.0852 8.29564 14.8266 9.5788 13.0367 9.5788H11.0759V12.8395H9.6593V3.29544L13.0811 3.29544ZM11.0759 8.33532H12.7014C13.9348 8.33532 14.6368 7.64092 14.6368 6.43712C14.6368 5.23344 13.9348 4.54556 12.7078 4.54556H11.0759V8.33532Z" fill="black"/>
<path d="M16.4552 10.862C16.4552 9.64488 17.347 8.89754 18.9283 8.80492L20.7498 8.69253V8.15684C20.7498 7.38296 20.2501 6.91999 19.4154 6.91999C18.6246 6.91999 18.1312 7.31675 18.0112 7.93855H16.7209C16.7968 6.6818 17.8213 5.75586 19.4659 5.75586C21.0787 5.75586 22.1095 6.64876 22.1095 8.04431V12.8395H20.8003V11.6953H20.7688C20.383 12.4691 19.5417 12.9585 18.669 12.9585C17.366 12.9585 16.4552 12.1119 16.4552 10.862ZM20.7498 10.2336V9.68468L19.1116 9.79044C18.2957 9.85002 17.834 10.227 17.834 10.8223C17.834 11.4307 18.3147 11.8276 19.0484 11.8276C20.0034 11.8276 20.7498 11.1397 20.7498 10.2336Z" fill="black"/>
<path d="M23.3458 15.3992V14.2417C23.4468 14.2681 23.6745 14.2681 23.7884 14.2681C24.4208 14.2681 24.7624 13.9903 24.9711 13.276C24.9711 13.2628 25.0913 12.8527 25.0913 12.8461L22.688 5.8815H24.1678L25.8504 11.5432H25.8755L27.5581 5.8815H29.0002L26.508 13.2032C25.939 14.8899 25.2812 15.4322 23.9024 15.4322C23.7884 15.4322 23.4468 15.4189 23.3458 15.3992Z" fill="black"/>
</g>
<defs>
<clipPath id="clip0_6_2495">
<rect width="29" height="18" fill="white"/>
</clipPath>
</defs>
</svg>
