<svg width="30" height="30" viewBox="0 0 30 30" fill="none" xmlns="http://www.w3.org/2000/svg">
<path d="M17.58 12.3965C17.7606 12.9184 18.3301 13.1951 18.852 13.0145C19.3739 12.8339 19.6506 12.2644 19.47 11.7424L17.58 12.3965ZM16.5 10.5417L16.5439 9.54263C16.5293 9.54199 16.5146 9.54166 16.5 9.54166V10.5417ZM13.5 15.125V16.125V15.125ZM16.5 19.7083V20.7083V19.7083ZM13.5 19.7083L13.4561 20.7074C13.4707 20.708 13.4853 20.7083 13.5 20.7083V19.7083ZM12.42 17.8535C12.2394 17.3316 11.6699 17.0549 11.148 17.2355C10.6261 17.4161 10.3494 17.9856 10.53 18.5076L12.42 17.8535ZM16 8.25C16 7.69771 15.5523 7.25 15 7.25C14.4477 7.25 14 7.69771 14 8.25H16ZM14 10.5417C14 11.0939 14.4477 11.5417 15 11.5417C15.5523 11.5417 16 11.0939 16 10.5417H14ZM16 19.7083C16 19.156 15.5523 18.7083 15 18.7083C14.4477 18.7083 14 19.156 14 19.7083H16ZM14 22C14 22.5523 14.4477 23 15 23C15.5523 23 16 22.5523 16 22H14ZM19.47 11.7424C19.2565 11.1253 18.8655 10.5845 18.3445 10.1914L17.1399 11.788C17.3407 11.9394 17.4949 12.1507 17.58 12.3965L19.47 11.7424ZM18.3445 10.1914C17.8232 9.79815 17.1962 9.57131 16.5439 9.54263L16.4561 11.5407C16.7012 11.5515 16.9394 11.6367 17.1399 11.788L18.3445 10.1914ZM16.5 9.54166H13.5V11.5417H16.5V9.54166ZM13.5 9.54166C12.6321 9.54166 11.8035 9.89301 11.1954 10.5123L12.6226 11.9135C12.8585 11.6732 13.1745 11.5417 13.5 11.5417V9.54166ZM11.1954 10.5123C10.588 11.1309 10.25 11.9662 10.25 12.8333H12.25C12.25 12.4849 12.3861 12.1544 12.6226 11.9135L11.1954 10.5123ZM10.25 12.8333C10.25 13.7005 10.588 14.5357 11.1954 15.1544L12.6226 13.7532C12.3861 13.5123 12.25 13.1818 12.25 12.8333H10.25ZM11.1954 15.1544C11.8035 15.7737 12.6321 16.125 13.5 16.125V14.125C13.1745 14.125 12.8585 13.9935 12.6226 13.7532L11.1954 15.1544ZM13.5 16.125H16.5V14.125H13.5V16.125ZM16.5 16.125C16.8255 16.125 17.1415 16.2565 17.3774 16.4968L18.8046 15.0956C18.1965 14.4763 17.3679 14.125 16.5 14.125V16.125ZM17.3774 16.4968C17.6139 16.7377 17.75 17.0682 17.75 17.4167H19.75C19.75 16.5495 19.412 15.7143 18.8046 15.0956L17.3774 16.4968ZM17.75 17.4167C17.75 17.7651 17.6139 18.0956 17.3774 18.3365L18.8046 19.7377C19.412 19.119 19.75 18.2838 19.75 17.4167H17.75ZM17.3774 18.3365C17.1415 18.5768 16.8255 18.7083 16.5 18.7083V20.7083C17.3679 20.7083 18.1965 20.357 18.8046 19.7377L17.3774 18.3365ZM16.5 18.7083H13.5V20.7083H16.5V18.7083ZM13.5439 18.7093C13.2988 18.6985 13.0606 18.6133 12.8601 18.462L11.6555 20.0586C12.1768 20.4518 12.8038 20.6787 13.4561 20.7074L13.5439 18.7093ZM12.8601 18.462C12.6593 18.3105 12.5051 18.0993 12.42 17.8535L10.53 18.5076C10.7435 19.1246 11.1345 19.6655 11.6555 20.0586L12.8601 18.462ZM14 8.25V10.5417H16V8.25H14ZM14 19.7083V22H16V19.7083H14ZM26 15C26 21.0751 21.0751 26 15 26V28C22.1797 28 28 22.1797 28 15H26ZM15 26C8.92487 26 4 21.0751 4 15H2C2 22.1797 7.8203 28 15 28V26ZM4 15C4 8.92487 8.92487 4 15 4V2C7.8203 2 2 7.8203 2 15H4ZM15 4C21.0751 4 26 8.92487 26 15H28C28 7.8203 22.1797 2 15 2V4Z" fill="#4A72FF"/>
</svg>
