<svg width="56" height="30" viewBox="0 0 56 30" fill="none" xmlns="http://www.w3.org/2000/svg">
<g clip-path="url(#clip0_5_1715)">
<path d="M40.4854 0H14.7407C6.69548 0 0.113037 6.75 0.113037 15C0.113037 23.25 6.69548 30 14.7407 30H40.4854C48.5306 30 55.113 23.25 55.113 15C55.113 6.75 48.5306 0 40.4854 0Z" fill="white"/>
<path d="M40.4854 1.215C42.2919 1.215 44.0472 1.5825 45.7001 2.3025C47.3019 3 48.7354 3.9975 49.9787 5.265C51.2148 6.5325 52.1875 8.01 52.8677 9.6525C53.5698 11.3475 53.9282 13.1475 53.9282 15C53.9282 16.8525 53.5698 18.6525 52.8677 20.3475C52.1875 21.99 51.2148 23.46 49.9787 24.735C48.7427 26.0025 47.3019 27 45.7001 27.6975C44.0472 28.4175 42.2919 28.785 40.4854 28.785H14.7407C12.9342 28.785 11.1789 28.4175 9.52594 27.6975C7.92421 27 6.4907 26.0025 5.24735 24.735C4.01131 23.4675 3.03857 21.99 2.35838 20.3475C1.65626 18.6525 1.29788 16.8525 1.29788 15C1.29788 13.1475 1.65626 11.3475 2.35838 9.6525C3.03857 8.01 4.01131 6.54 5.24735 5.265C6.48338 3.9975 7.92421 3 9.52594 2.3025C11.1789 1.5825 12.9342 1.215 14.7407 1.215H40.4854ZM40.4854 0H14.7407C6.69548 0 0.113037 6.75 0.113037 15C0.113037 23.25 6.69548 30 14.7407 30H40.4854C48.5306 30 55.113 23.25 55.113 15C55.113 6.75 48.5306 0 40.4854 0Z" fill="#EBEBEB"/>
<path d="M26.3404 16.0651V20.6026H24.9362V9.39758H28.6589C29.6024 9.39758 30.4069 9.72008 31.0651 10.3651C31.738 11.0101 32.0745 11.7976 32.0745 12.7276C32.0745 13.6801 31.738 14.4676 31.0651 15.1051C30.4142 15.7426 29.6097 16.0576 28.6589 16.0576H26.3404V16.0651ZM26.3404 10.7776V14.6851H28.6882C29.244 14.6851 29.7121 14.4901 30.0778 14.1076C30.4508 13.7251 30.6409 13.2601 30.6409 12.7351C30.6409 12.2176 30.4508 11.7601 30.0778 11.3776C29.7121 10.9801 29.2513 10.7851 28.6882 10.7851H26.3404V10.7776Z" fill="#3C4043"/>
<path d="M35.746 12.6827C36.7846 12.6827 37.6037 12.9677 38.2035 13.5377C38.8032 14.1077 39.1031 14.8877 39.1031 15.8777V20.6027H37.7647V19.5377H37.7061C37.1284 20.4152 36.3531 20.8502 35.3877 20.8502C34.5612 20.8502 33.8737 20.6027 33.3178 20.1002C32.762 19.5977 32.4841 18.9752 32.4841 18.2252C32.4841 17.4302 32.7766 16.8002 33.3617 16.3352C33.9468 15.8627 34.7294 15.6302 35.7022 15.6302C36.5359 15.6302 37.2234 15.7877 37.7573 16.1027V15.7727C37.7573 15.2702 37.5672 14.8502 37.1795 14.4977C36.7919 14.1452 36.3385 13.9727 35.8192 13.9727C35.0366 13.9727 34.4149 14.3102 33.9615 14.9927L32.7254 14.1977C33.4056 13.1852 34.4149 12.6827 35.746 12.6827ZM33.9322 18.2477C33.9322 18.6227 34.0858 18.9377 34.4003 19.1852C34.7075 19.4327 35.0732 19.5602 35.4901 19.5602C36.0825 19.5602 36.6091 19.3352 37.0698 18.8852C37.5306 18.4352 37.7647 17.9102 37.7647 17.3027C37.3258 16.9502 36.7188 16.7702 35.9362 16.7702C35.3657 16.7702 34.8903 16.9127 34.51 17.1902C34.1224 17.4827 33.9322 17.8352 33.9322 18.2477Z" fill="#3C4043"/>
<path d="M46.7388 12.93L42.0579 23.97H40.6098L42.3505 20.1075L39.264 12.93H40.7926L43.016 18.435H43.0453L45.2102 12.93H46.7388Z" fill="#3C4043"/>
<path d="M20.7548 15.15C20.7548 14.6805 20.7139 14.2313 20.6378 13.7993H14.7516V16.2743L18.1416 16.275C18.0041 17.0985 17.5616 17.8005 16.8836 18.2685V19.8743H18.9015C20.0798 18.756 20.7548 17.103 20.7548 15.15Z" fill="#4A72FF"/>
<path d="M16.8843 18.2685C16.3226 18.657 15.5992 18.8842 14.753 18.8842C13.1184 18.8842 11.7317 17.7547 11.2351 16.2322H9.15356V17.8882C10.1848 19.9867 12.3044 21.4267 14.753 21.4267C16.4455 21.4267 17.8673 20.856 18.9022 19.8735L16.8843 18.2685Z" fill="#34A853"/>
<path d="M11.0392 15.0038C11.0392 14.5763 11.1086 14.163 11.2352 13.7745V12.1185H9.15366C8.72726 12.9863 8.48737 13.9658 8.48737 15.0038C8.48737 16.0418 8.72799 17.0213 9.15366 17.889L11.2352 16.233C11.1086 15.8445 11.0392 15.4313 11.0392 15.0038Z" fill="#FABB05"/>
<path d="M14.753 11.1225C15.6768 11.1225 16.504 11.4488 17.1571 12.0863L18.9453 10.254C17.8592 9.21677 16.4433 8.58002 14.753 8.58002C12.3051 8.58002 10.1848 10.02 9.15356 12.1185L11.2351 13.7745C11.7317 12.252 13.1184 11.1225 14.753 11.1225Z" fill="#E94235"/>
</g>
<defs>
<clipPath id="clip0_5_1715">
<rect width="55" height="30" fill="white" transform="translate(0.113037)"/>
</clipPath>
</defs>
</svg>
