<svg width="34" height="18" viewBox="0 0 34 18" fill="none" xmlns="http://www.w3.org/2000/svg">
<path d="M16.2295 9.58047V13.5696H15.0061V3.71878H18.2493C19.0712 3.71878 19.7721 4.0023 20.3455 4.56935C20.9317 5.1364 21.2248 5.82873 21.2248 6.64633C21.2248 7.48372 20.9317 8.17604 20.3455 8.7365C19.7785 9.29695 19.0776 9.57388 18.2493 9.57388H16.2295V9.58047ZM16.2295 4.932V8.36725H18.2748C18.759 8.36725 19.1668 8.19582 19.4854 7.85955C19.8103 7.52328 19.976 7.11447 19.976 6.65292C19.976 6.19797 19.8103 5.79576 19.4854 5.45949C19.1668 5.11003 18.7654 4.93859 18.2748 4.93859H16.2295V4.932Z" fill="#3C4043"/>
<path d="M24.4235 6.60687C25.3283 6.60687 26.0419 6.85743 26.5644 7.35854C27.0869 7.85965 27.3481 8.54538 27.3481 9.41574V13.5697H26.1821V12.6334H26.1311C25.6278 13.4049 24.9524 13.7873 24.1113 13.7873C23.3913 13.7873 22.7924 13.5697 22.3082 13.1279C21.8239 12.6862 21.5818 12.1389 21.5818 11.4795C21.5818 10.7806 21.8367 10.2267 22.3464 9.81795C22.8561 9.40255 23.5379 9.19815 24.3853 9.19815C25.1117 9.19815 25.7106 9.33661 26.1757 9.61354V9.32343C26.1757 8.88166 26.0101 8.51242 25.6724 8.20252C25.3347 7.89262 24.9396 7.74097 24.4873 7.74097C23.8055 7.74097 23.2639 8.03768 22.8689 8.63769L21.7921 7.93878C22.3846 7.04864 23.2639 6.60687 24.4235 6.60687ZM22.8434 11.4993C22.8434 11.829 22.9772 12.1059 23.2512 12.3235C23.5188 12.5411 23.8374 12.6532 24.2005 12.6532C24.7166 12.6532 25.1754 12.4554 25.5768 12.0598C25.9782 11.6641 26.1821 11.2026 26.1821 10.6685C25.7998 10.3586 25.271 10.2004 24.5892 10.2004C24.0922 10.2004 23.6781 10.3257 23.3467 10.5696C23.009 10.8268 22.8434 11.1367 22.8434 11.4993Z" fill="#3C4043"/>
<path d="M34 6.82425L29.9221 16.53H28.6605L30.177 13.1343L27.4882 6.82425H28.8198L30.7568 11.6639H30.7823L32.6683 6.82425H34Z" fill="#3C4043"/>
<path d="M11.3634 8.77594C11.3634 8.36319 11.3277 7.96823 11.2614 7.58844H6.13354V9.76432L9.0868 9.76498C8.96702 10.489 8.58153 11.1061 7.99088 11.5176V12.9292H9.74882C10.7753 11.9461 11.3634 10.4929 11.3634 8.77594Z" fill="#4A72FF"/>
<path d="M7.99155 11.5176C7.5022 11.8592 6.87205 12.0589 6.13485 12.0589C4.71078 12.0589 3.50272 11.0659 3.07008 9.72745H1.25671V11.1833C2.15512 13.0282 4.00162 14.2942 6.13485 14.2942C7.60925 14.2942 8.84789 13.7924 9.74948 12.9286L7.99155 11.5176Z" fill="#34A853"/>
<path d="M2.89934 8.64742C2.89934 8.27159 2.95987 7.90828 3.0701 7.56673V6.11087H1.25673C0.88526 6.87375 0.67627 7.73487 0.67627 8.64742C0.67627 9.55997 0.885897 10.4211 1.25673 11.184L3.0701 9.72811C2.95987 9.38656 2.89934 9.02325 2.89934 8.64742Z" fill="#FABB05"/>
<path d="M6.13485 5.23522C6.93959 5.23522 7.66022 5.52204 8.22921 6.0825L9.78708 4.47169C8.84089 3.55979 7.60734 3 6.13485 3C4.00226 3 2.15512 4.26597 1.25671 6.11085L3.07008 7.56671C3.50272 6.22822 4.71078 5.23522 6.13485 5.23522Z" fill="#E94235"/>
</svg>
