<svg width="90" height="58" viewBox="0 0 90 58" fill="none" xmlns="http://www.w3.org/2000/svg">
<path d="M70.4377 0.313457C70.2829 0.497734 69.2336 2.1378 68.0984 3.96214C58.8442 18.8148 47.5603 27.6048 33.3179 31.0324C32.3202 31.2719 31.1333 31.5299 30.6689 31.6036C29.2928 31.8248 28.622 32.9489 29.1896 34.073C29.5508 34.8101 30.2217 34.8838 32.3202 34.4599C40.6799 32.783 48.4032 29.1159 55.2664 23.5692C56.9005 22.2424 57.1241 22.1318 57.3477 22.5557C57.4165 22.6847 57.7433 23.1085 58.053 23.477L58.6206 24.1589L59.6527 23.2191L60.6675 22.2608L59.8763 21.2657L59.085 20.2706L61.2008 18.004C64.641 14.3369 68.5628 9.15874 70.6785 5.52849C71.0914 4.82824 71.4698 4.25698 71.5214 4.23855C71.5902 4.23855 72.1234 4.80981 72.691 5.51006L73.7403 6.78157L73.1383 8.05308C72.1062 10.1723 71.8138 12.4573 72.261 14.7607C73.4479 20.7682 79.6919 24.2879 84.8694 21.9107L85.6606 21.5421L86.1595 22.0581C86.4175 22.3345 86.6411 22.6662 86.6411 22.8136C86.6411 23.5139 83.4245 29.0238 80.9647 32.525C79.2962 34.8838 75.2368 39.804 74.9444 39.804C74.8584 39.804 74.6348 39.5828 74.4456 39.3248C74.2563 39.0668 73.8263 38.514 73.4823 38.127L72.8631 37.3899L71.831 38.3482L70.8161 39.288L71.7622 40.4489C72.2782 41.0939 72.7083 41.702 72.7083 41.7941C72.7083 42.0337 70.7645 43.6922 68.752 45.1848C63.1617 49.3126 56.3157 52.3901 49.16 53.9748C47.2507 54.3987 46.7347 54.8041 46.7347 55.836C46.7347 56.7021 47.3023 57.3102 48.0936 57.3102C48.4204 57.3102 49.5729 57.0891 50.6737 56.8311C60.6159 54.4355 69.0788 49.7918 76.2345 42.8077C80.8615 38.2929 85.2306 32.2302 88.688 25.5778C90.3909 22.2977 90.4253 22.4819 87.8796 19.4045C86.5207 17.7645 86.1423 17.6355 84.8866 18.391C84.3878 18.7043 83.5105 19.0913 82.9601 19.2571C80.1735 20.1232 76.8881 18.52 75.684 15.7006C75.2024 14.5949 74.8928 12.5863 75.0476 11.628C75.2024 10.6882 76.0108 8.88232 76.6473 8.03465C77.5417 6.85528 77.4557 6.59729 75.1336 3.741C72.0546 -0.0919495 72.1578 0.00018692 71.3838 0.00018692C70.9537 0.00018692 70.5925 0.110756 70.4377 0.313457Z" fill="#4A72FF"/>
<path d="M61.734 25.7621C61.2524 26.2412 60.8395 26.7019 60.8395 26.794C60.8395 26.8677 61.476 27.7154 62.2328 28.6736C63.7981 30.5901 63.6089 30.5533 64.9506 29.2449C65.587 28.6368 65.6386 28.5078 65.4494 28.2314C65.0022 27.568 62.8177 24.8775 62.7317 24.8775C62.68 24.896 62.2328 25.2829 61.734 25.7621Z" fill="#4A72FF"/>
<path d="M66.8083 32.0091C66.2751 32.5066 65.8451 32.9489 65.8451 33.0041C65.8279 33.0779 67.8232 35.6393 68.6833 36.6528C68.7005 36.6897 69.1993 36.2843 69.7669 35.7499L70.799 34.7916L69.3369 32.9673C68.5112 31.9538 67.8404 31.143 67.8232 31.143C67.7888 31.143 67.3416 31.5299 66.8083 32.0091Z" fill="#4A72FF"/>
<path d="M49.8309 34.6442C48.644 35.2523 46.8035 36.0816 45.737 36.5054C44.5846 36.9661 43.6901 37.4452 43.5353 37.6663C42.9849 38.514 43.3977 39.675 44.3781 40.0435C44.9974 40.2831 52.7034 36.9477 53.5635 36.0816C54.4408 35.197 53.7699 33.5201 52.5486 33.557C52.239 33.557 51.0177 34.0545 49.8309 34.6442Z" fill="#4A72FF"/>
<path d="M0.618711 34.9943C-0.378949 36.0631 0.137082 37.0766 2.1668 38.0902C10.5265 42.2548 20.4171 44.3371 28.794 43.7106C31.8386 43.471 34.9176 43.0472 35.8636 42.7339C36.5173 42.5128 36.7581 42.089 36.7581 41.2229C36.7581 40.799 36.6205 40.4673 36.3281 40.1725C35.8636 39.6934 35.7948 39.6934 31.7698 40.2831C28.8628 40.7069 22.8597 40.7069 19.7635 40.3015C14.6204 39.6012 8.82361 37.8138 3.59449 35.3076C2.63123 34.8469 1.68518 34.4599 1.47876 34.4599C1.28955 34.4599 0.893928 34.6995 0.618711 34.9943Z" fill="#4A72FF"/>
<path d="M60.1343 39.3248C53.4431 43.9502 46.9927 46.9539 40.3703 48.5202C37.0333 49.3126 34.9176 49.589 31.4258 49.6812C29.5853 49.7365 27.8996 49.8102 27.6759 49.8655C26.5923 50.105 26.2311 51.5792 27.0567 52.4638L27.5039 52.9429L31.2194 52.8323C36.4657 52.6849 40.9379 51.8741 45.8746 50.2156C50.9489 48.4834 57.4337 45.0743 62.6112 41.3703C64.1421 40.2831 64.4174 39.3985 63.5401 38.3666C62.9209 37.6479 62.3016 37.8138 60.1343 39.3248Z" fill="#4A72FF"/>
<path d="M12.0746 46.9539C11.0081 47.1934 10.5609 48.7414 11.3521 49.5338C12.0574 50.2524 20.7095 52.5006 21.7244 52.2242C22.292 52.0768 22.8252 51.3028 22.8252 50.6394C22.8252 49.6996 22.2404 49.2942 20.3139 48.9256C18.5766 48.5939 15.5664 47.8384 13.5367 47.2119C12.9174 47.0276 12.2638 46.917 12.0746 46.9539Z" fill="#4A72FF"/>
</svg>
