<svg width="100" height="85" viewBox="0 0 100 85" fill="none" xmlns="http://www.w3.org/2000/svg">
<path d="M8.878 82L4.27 69.4H6.736L10.3 79.642L13.882 69.4H16.312L11.704 82H8.878ZM20.9677 82.216C20.1037 82.216 19.3237 82.018 18.6277 81.622C17.9437 81.226 17.3977 80.68 16.9897 79.984C16.5937 79.276 16.3957 78.46 16.3957 77.536C16.3957 76.612 16.5997 75.802 17.0077 75.106C17.4157 74.398 17.9617 73.846 18.6457 73.45C19.3417 73.054 20.1217 72.856 20.9857 72.856C21.8377 72.856 22.6057 73.054 23.2897 73.45C23.9857 73.846 24.5317 74.398 24.9277 75.106C25.3357 75.802 25.5397 76.612 25.5397 77.536C25.5397 78.46 25.3357 79.276 24.9277 79.984C24.5317 80.68 23.9857 81.226 23.2897 81.622C22.5937 82.018 21.8197 82.216 20.9677 82.216ZM20.9677 80.218C21.5677 80.218 22.0897 79.996 22.5337 79.552C22.9777 79.096 23.1997 78.424 23.1997 77.536C23.1997 76.648 22.9777 75.982 22.5337 75.538C22.0897 75.082 21.5737 74.854 20.9857 74.854C20.3737 74.854 19.8457 75.082 19.4017 75.538C18.9697 75.982 18.7537 76.648 18.7537 77.536C18.7537 78.424 18.9697 79.096 19.4017 79.552C19.8457 79.996 20.3677 80.218 20.9677 80.218ZM30.9477 82.216C29.8317 82.216 28.9677 81.868 28.3557 81.172C27.7557 80.476 27.4557 79.456 27.4557 78.112V73.072H29.7417V77.896C29.7417 78.664 29.8977 79.252 30.2097 79.66C30.5217 80.068 31.0137 80.272 31.6857 80.272C32.3217 80.272 32.8437 80.044 33.2517 79.588C33.6717 79.132 33.8817 78.496 33.8817 77.68V73.072H36.1857V82H34.1517L33.9717 80.488C33.6957 81.016 33.2937 81.436 32.7657 81.748C32.2497 82.06 31.6437 82.216 30.9477 82.216ZM42.9249 82.216C42.0129 82.216 41.2089 82.018 40.5129 81.622C39.8169 81.226 39.2649 80.674 38.8569 79.966C38.4609 79.258 38.2629 78.448 38.2629 77.536C38.2629 76.624 38.4609 75.814 38.8569 75.106C39.2649 74.398 39.8169 73.846 40.5129 73.45C41.2089 73.054 42.0129 72.856 42.9249 72.856C44.0649 72.856 45.0249 73.156 45.8049 73.756C46.5849 74.344 47.0829 75.16 47.2989 76.204H44.8689C44.7489 75.772 44.5089 75.436 44.1489 75.196C43.8009 74.944 43.3869 74.818 42.9069 74.818C42.2709 74.818 41.7309 75.058 41.2869 75.538C40.8429 76.018 40.6209 76.684 40.6209 77.536C40.6209 78.388 40.8429 79.054 41.2869 79.534C41.7309 80.014 42.2709 80.254 42.9069 80.254C43.3869 80.254 43.8009 80.134 44.1489 79.894C44.5089 79.654 44.7489 79.312 44.8689 78.868H47.2989C47.0829 79.876 46.5849 80.686 45.8049 81.298C45.0249 81.91 44.0649 82.216 42.9249 82.216ZM49.3438 82V69.04H51.6478V74.44C51.9478 73.948 52.3498 73.564 52.8538 73.288C53.3698 73 53.9578 72.856 54.6178 72.856C55.7218 72.856 56.5738 73.204 57.1738 73.9C57.7858 74.596 58.0918 75.616 58.0918 76.96V82H55.8058V77.176C55.8058 76.408 55.6498 75.82 55.3378 75.412C55.0378 75.004 54.5578 74.8 53.8978 74.8C53.2498 74.8 52.7098 75.028 52.2778 75.484C51.8578 75.94 51.6478 76.576 51.6478 77.392V82H49.3438ZM64.633 82.216C63.733 82.216 62.935 82.024 62.239 81.64C61.543 81.256 60.997 80.716 60.601 80.02C60.205 79.324 60.007 78.52 60.007 77.608C60.007 76.684 60.199 75.862 60.583 75.142C60.979 74.422 61.519 73.864 62.203 73.468C62.899 73.06 63.715 72.856 64.651 72.856C65.527 72.856 66.301 73.048 66.973 73.432C67.645 73.816 68.167 74.344 68.539 75.016C68.923 75.676 69.115 76.414 69.115 77.23C69.115 77.362 69.109 77.5 69.097 77.644C69.097 77.788 69.091 77.938 69.079 78.094H62.293C62.341 78.79 62.581 79.336 63.013 79.732C63.457 80.128 63.991 80.326 64.615 80.326C65.083 80.326 65.473 80.224 65.785 80.02C66.109 79.804 66.349 79.528 66.505 79.192H68.845C68.677 79.756 68.395 80.272 67.999 80.74C67.615 81.196 67.135 81.556 66.559 81.82C65.995 82.084 65.353 82.216 64.633 82.216ZM64.651 74.728C64.087 74.728 63.589 74.89 63.157 75.214C62.725 75.526 62.449 76.006 62.329 76.654H66.775C66.739 76.066 66.523 75.598 66.127 75.25C65.731 74.902 65.239 74.728 64.651 74.728ZM71.0528 82V73.072H73.1048L73.3208 74.746C73.6448 74.17 74.0828 73.714 74.6348 73.378C75.1988 73.03 75.8588 72.856 76.6148 72.856V75.286H75.9668C75.4628 75.286 75.0128 75.364 74.6168 75.52C74.2208 75.676 73.9088 75.946 73.6808 76.33C73.4648 76.714 73.3568 77.248 73.3568 77.932V82H71.0528ZM82.3153 82.216C81.4513 82.216 80.6713 82.018 79.9753 81.622C79.2913 81.226 78.7453 80.68 78.3373 79.984C77.9413 79.276 77.7433 78.46 77.7433 77.536C77.7433 76.612 77.9473 75.802 78.3553 75.106C78.7633 74.398 79.3093 73.846 79.9933 73.45C80.6893 73.054 81.4693 72.856 82.3333 72.856C83.1853 72.856 83.9533 73.054 84.6373 73.45C85.3333 73.846 85.8793 74.398 86.2753 75.106C86.6833 75.802 86.8873 76.612 86.8873 77.536C86.8873 78.46 86.6833 79.276 86.2753 79.984C85.8793 80.68 85.3333 81.226 84.6373 81.622C83.9413 82.018 83.1673 82.216 82.3153 82.216ZM82.3153 80.218C82.9153 80.218 83.4373 79.996 83.8813 79.552C84.3253 79.096 84.5473 78.424 84.5473 77.536C84.5473 76.648 84.3253 75.982 83.8813 75.538C83.4373 75.082 82.9213 74.854 82.3333 74.854C81.7213 74.854 81.1933 75.082 80.7493 75.538C80.3173 75.982 80.1013 76.648 80.1013 77.536C80.1013 78.424 80.3173 79.096 80.7493 79.552C81.1933 79.996 81.7153 80.218 82.3153 80.218ZM88.9473 82V73.072H90.9813L91.1613 74.584C91.4373 74.056 91.8333 73.636 92.3493 73.324C92.8773 73.012 93.4953 72.856 94.2033 72.856C95.3073 72.856 96.1653 73.204 96.7773 73.9C97.3893 74.596 97.6953 75.616 97.6953 76.96V82H95.3913V77.176C95.3913 76.408 95.2353 75.82 94.9233 75.412C94.6113 75.004 94.1253 74.8 93.4653 74.8C92.8173 74.8 92.2833 75.028 91.8633 75.484C91.4553 75.94 91.2513 76.576 91.2513 77.392V82H88.9473Z" fill="#0C1B4D"/>
<path d="M80.4377 0.313457C80.2829 0.497734 79.2336 2.1378 78.0984 3.96214C68.8442 18.8148 57.5603 27.6048 43.3179 31.0324C42.3202 31.2719 41.1333 31.5299 40.6689 31.6036C39.2928 31.8248 38.622 32.9489 39.1896 34.073C39.5508 34.8101 40.2217 34.8838 42.3202 34.4599C50.6799 32.783 58.4032 29.1159 65.2664 23.5692C66.9005 22.2424 67.1241 22.1318 67.3477 22.5557C67.4165 22.6847 67.7433 23.1085 68.053 23.477L68.6206 24.1589L69.6527 23.2191L70.6675 22.2608L69.8763 21.2657L69.085 20.2706L71.2008 18.004C74.641 14.3369 78.5628 9.15874 80.6785 5.52849C81.0914 4.82824 81.4698 4.25698 81.5214 4.23855C81.5902 4.23855 82.1234 4.80981 82.691 5.51006L83.7403 6.78157L83.1383 8.05308C82.1062 10.1723 81.8138 12.4573 82.261 14.7607C83.4479 20.7682 89.6919 24.2879 94.8694 21.9107L95.6606 21.5421L96.1595 22.0581C96.4175 22.3345 96.6411 22.6662 96.6411 22.8136C96.6411 23.5139 93.4245 29.0238 90.9647 32.525C89.2962 34.8838 85.2368 39.804 84.9444 39.804C84.8584 39.804 84.6348 39.5828 84.4456 39.3248C84.2563 39.0668 83.8263 38.514 83.4823 38.127L82.8631 37.3899L81.831 38.3482L80.8161 39.288L81.7622 40.4489C82.2782 41.0939 82.7083 41.702 82.7083 41.7941C82.7083 42.0337 80.7645 43.6922 78.752 45.1848C73.1617 49.3126 66.3157 52.3901 59.16 53.9748C57.2507 54.3987 56.7347 54.8041 56.7347 55.836C56.7347 56.7021 57.3023 57.3102 58.0936 57.3102C58.4204 57.3102 59.5729 57.0891 60.6737 56.8311C70.6159 54.4355 79.0788 49.7918 86.2345 42.8077C90.8615 38.2929 95.2306 32.2302 98.688 25.5778C100.391 22.2977 100.425 22.4819 97.8796 19.4045C96.5207 17.7645 96.1423 17.6355 94.8866 18.391C94.3878 18.7043 93.5105 19.0913 92.9601 19.2571C90.1735 20.1232 86.8881 18.52 85.684 15.7006C85.2024 14.5949 84.8928 12.5863 85.0476 11.628C85.2024 10.6882 86.0108 8.88232 86.6473 8.03465C87.5417 6.85528 87.4557 6.59729 85.1336 3.741C82.0546 -0.0919495 82.1578 0.00018692 81.3838 0.00018692C80.9537 0.00018692 80.5925 0.110756 80.4377 0.313457Z" fill="#4A72FF"/>
<path d="M71.734 25.7621C71.2524 26.2412 70.8395 26.7019 70.8395 26.794C70.8395 26.8677 71.476 27.7154 72.2328 28.6736C73.7981 30.5901 73.6089 30.5533 74.9506 29.2449C75.587 28.6368 75.6386 28.5078 75.4494 28.2314C75.0022 27.568 72.8177 24.8775 72.7317 24.8775C72.68 24.896 72.2328 25.2829 71.734 25.7621Z" fill="#4A72FF"/>
<path d="M76.8083 32.0091C76.2751 32.5066 75.8451 32.9489 75.8451 33.0041C75.8279 33.0779 77.8232 35.6393 78.6833 36.6528C78.7005 36.6897 79.1993 36.2843 79.7669 35.7499L80.799 34.7916L79.3369 32.9673C78.5112 31.9538 77.8404 31.143 77.8232 31.143C77.7888 31.143 77.3416 31.5299 76.8083 32.0091Z" fill="#4A72FF"/>
<path d="M59.8309 34.6442C58.644 35.2523 56.8035 36.0816 55.737 36.5054C54.5846 36.9661 53.6901 37.4452 53.5353 37.6663C52.9849 38.514 53.3977 39.675 54.3781 40.0435C54.9974 40.2831 62.7034 36.9477 63.5635 36.0816C64.4408 35.197 63.7699 33.5201 62.5486 33.557C62.239 33.557 61.0177 34.0545 59.8309 34.6442Z" fill="#4A72FF"/>
<path d="M10.6187 34.9943C9.62105 36.0631 10.1371 37.0766 12.1668 38.0902C20.5265 42.2548 30.4171 44.3371 38.794 43.7106C41.8386 43.471 44.9176 43.0472 45.8636 42.7339C46.5173 42.5128 46.7581 42.089 46.7581 41.2229C46.7581 40.799 46.6205 40.4673 46.3281 40.1725C45.8636 39.6934 45.7948 39.6934 41.7698 40.2831C38.8628 40.7069 32.8597 40.7069 29.7635 40.3015C24.6204 39.6012 18.8236 37.8138 13.5945 35.3076C12.6312 34.8469 11.6852 34.4599 11.4788 34.4599C11.2896 34.4599 10.8939 34.6995 10.6187 34.9943Z" fill="#4A72FF"/>
<path d="M70.1343 39.3248C63.4431 43.9502 56.9927 46.9539 50.3703 48.5202C47.0333 49.3126 44.9176 49.589 41.4258 49.6812C39.5853 49.7365 37.8996 49.8102 37.6759 49.8655C36.5923 50.105 36.2311 51.5792 37.0567 52.4638L37.5039 52.9429L41.2194 52.8323C46.4657 52.6849 50.9379 51.8741 55.8746 50.2156C60.9489 48.4834 67.4337 45.0743 72.6112 41.3703C74.1421 40.2831 74.4174 39.3985 73.5401 38.3666C72.9209 37.6479 72.3016 37.8138 70.1343 39.3248Z" fill="#4A72FF"/>
<path d="M22.0746 46.9539C21.0081 47.1934 20.5609 48.7414 21.3521 49.5338C22.0574 50.2524 30.7095 52.5006 31.7244 52.2242C32.292 52.0768 32.8252 51.3028 32.8252 50.6394C32.8252 49.6996 32.2404 49.2942 30.3139 48.9256C28.5766 48.5939 25.5664 47.8384 23.5367 47.2119C22.9174 47.0276 22.2638 46.917 22.0746 46.9539Z" fill="#4A72FF"/>
</svg>
