<svg width="81" height="73" viewBox="0 0 81 73" fill="none" xmlns="http://www.w3.org/2000/svg">
<path d="M6.794 72L3.21 62.2H5.128L7.9 70.166L10.686 62.2H12.576L8.992 72H6.794ZM16.1971 72.168C15.5251 72.168 14.9184 72.014 14.3771 71.706C13.8451 71.398 13.4204 70.9733 13.1031 70.432C12.7951 69.8813 12.6411 69.2467 12.6411 68.528C12.6411 67.8093 12.7997 67.1793 13.1171 66.638C13.4344 66.0873 13.8591 65.658 14.3911 65.35C14.9324 65.042 15.5391 64.888 16.2111 64.888C16.8737 64.888 17.4711 65.042 18.0031 65.35C18.5444 65.658 18.9691 66.0873 19.2771 66.638C19.5944 67.1793 19.7531 67.8093 19.7531 68.528C19.7531 69.2467 19.5944 69.8813 19.2771 70.432C18.9691 70.9733 18.5444 71.398 18.0031 71.706C17.4617 72.014 16.8597 72.168 16.1971 72.168ZM16.1971 70.614C16.6637 70.614 17.0697 70.4413 17.4151 70.096C17.7604 69.7413 17.9331 69.2187 17.9331 68.528C17.9331 67.8373 17.7604 67.3193 17.4151 66.974C17.0697 66.6193 16.6684 66.442 16.2111 66.442C15.7351 66.442 15.3244 66.6193 14.9791 66.974C14.6431 67.3193 14.4751 67.8373 14.4751 68.528C14.4751 69.2187 14.6431 69.7413 14.9791 70.096C15.3244 70.4413 15.7304 70.614 16.1971 70.614ZM23.9593 72.168C23.0913 72.168 22.4193 71.8973 21.9433 71.356C21.4766 70.8147 21.2433 70.0213 21.2433 68.976V65.056H23.0213V68.808C23.0213 69.4053 23.1426 69.8627 23.3853 70.18C23.628 70.4973 24.0106 70.656 24.5333 70.656C25.028 70.656 25.434 70.4787 25.7513 70.124C26.078 69.7693 26.2413 69.2747 26.2413 68.64V65.056H28.0333V72H26.4513L26.3113 70.824C26.0966 71.2347 25.784 71.5613 25.3733 71.804C24.972 72.0467 24.5006 72.168 23.9593 72.168ZM33.2749 72.168C32.5656 72.168 31.9402 72.014 31.3989 71.706C30.8576 71.398 30.4282 70.9687 30.1109 70.418C29.8029 69.8673 29.6489 69.2373 29.6489 68.528C29.6489 67.8187 29.8029 67.1887 30.1109 66.638C30.4282 66.0873 30.8576 65.658 31.3989 65.35C31.9402 65.042 32.5656 64.888 33.2749 64.888C34.1616 64.888 34.9082 65.1213 35.5149 65.588C36.1216 66.0453 36.5089 66.68 36.6769 67.492H34.7869C34.6936 67.156 34.5069 66.8947 34.2269 66.708C33.9562 66.512 33.6342 66.414 33.2609 66.414C32.7662 66.414 32.3462 66.6007 32.0009 66.974C31.6556 67.3473 31.4829 67.8653 31.4829 68.528C31.4829 69.1907 31.6556 69.7087 32.0009 70.082C32.3462 70.4553 32.7662 70.642 33.2609 70.642C33.6342 70.642 33.9562 70.5487 34.2269 70.362C34.5069 70.1753 34.6936 69.9093 34.7869 69.564H36.6769C36.5089 70.348 36.1216 70.978 35.5149 71.454C34.9082 71.93 34.1616 72.168 33.2749 72.168ZM38.2674 72V61.92H40.0594V66.12C40.2928 65.7373 40.6054 65.4387 40.9974 65.224C41.3988 65 41.8561 64.888 42.3694 64.888C43.2281 64.888 43.8908 65.1587 44.3574 65.7C44.8334 66.2413 45.0714 67.0347 45.0714 68.08V72H43.2934V68.248C43.2934 67.6507 43.1721 67.1933 42.9294 66.876C42.6961 66.5587 42.3228 66.4 41.8094 66.4C41.3054 66.4 40.8854 66.5773 40.5494 66.932C40.2228 67.2867 40.0594 67.7813 40.0594 68.416V72H38.2674ZM50.159 72.168C49.459 72.168 48.8383 72.0187 48.297 71.72C47.7557 71.4213 47.331 71.0013 47.023 70.46C46.715 69.9187 46.561 69.2933 46.561 68.584C46.561 67.8653 46.7103 67.226 47.009 66.666C47.317 66.106 47.737 65.672 48.269 65.364C48.8103 65.0467 49.445 64.888 50.173 64.888C50.8543 64.888 51.4563 65.0373 51.979 65.336C52.5017 65.6347 52.9077 66.0453 53.197 66.568C53.4957 67.0813 53.645 67.6553 53.645 68.29C53.645 68.3927 53.6403 68.5 53.631 68.612C53.631 68.724 53.6263 68.8407 53.617 68.962H48.339C48.3763 69.5033 48.563 69.928 48.899 70.236C49.2443 70.544 49.6597 70.698 50.145 70.698C50.509 70.698 50.8123 70.6187 51.055 70.46C51.307 70.292 51.4937 70.0773 51.615 69.816H53.435C53.3043 70.2547 53.085 70.656 52.777 71.02C52.4783 71.3747 52.105 71.6547 51.657 71.86C51.2183 72.0653 50.719 72.168 50.159 72.168ZM50.173 66.344C49.7343 66.344 49.347 66.47 49.011 66.722C48.675 66.9647 48.4603 67.338 48.367 67.842H51.825C51.797 67.3847 51.629 67.0207 51.321 66.75C51.013 66.4793 50.6303 66.344 50.173 66.344ZM55.1522 72V65.056H56.7482L56.9162 66.358C57.1682 65.91 57.5089 65.5553 57.9382 65.294C58.3769 65.0233 58.8902 64.888 59.4782 64.888V66.778H58.9742C58.5822 66.778 58.2322 66.8387 57.9242 66.96C57.6162 67.0813 57.3735 67.2913 57.1962 67.59C57.0282 67.8887 56.9442 68.304 56.9442 68.836V72H55.1522ZM63.9119 72.168C63.2399 72.168 62.6333 72.014 62.0919 71.706C61.5599 71.398 61.1353 70.9733 60.8179 70.432C60.5099 69.8813 60.3559 69.2467 60.3559 68.528C60.3559 67.8093 60.5146 67.1793 60.8319 66.638C61.1493 66.0873 61.5739 65.658 62.1059 65.35C62.6473 65.042 63.2539 64.888 63.9259 64.888C64.5886 64.888 65.1859 65.042 65.7179 65.35C66.2593 65.658 66.6839 66.0873 66.9919 66.638C67.3093 67.1793 67.4679 67.8093 67.4679 68.528C67.4679 69.2467 67.3093 69.8813 66.9919 70.432C66.6839 70.9733 66.2593 71.398 65.7179 71.706C65.1766 72.014 64.5746 72.168 63.9119 72.168ZM63.9119 70.614C64.3786 70.614 64.7846 70.4413 65.1299 70.096C65.4753 69.7413 65.6479 69.2187 65.6479 68.528C65.6479 67.8373 65.4753 67.3193 65.1299 66.974C64.7846 66.6193 64.3833 66.442 63.9259 66.442C63.4499 66.442 63.0393 66.6193 62.6939 66.974C62.3579 67.3193 62.1899 67.8373 62.1899 68.528C62.1899 69.2187 62.3579 69.7413 62.6939 70.096C63.0393 70.4413 63.4453 70.614 63.9119 70.614ZM69.0702 72V65.056H70.6522L70.7922 66.232C71.0068 65.8213 71.3148 65.4947 71.7162 65.252C72.1268 65.0093 72.6075 64.888 73.1582 64.888C74.0168 64.888 74.6842 65.1587 75.1602 65.7C75.6362 66.2413 75.8742 67.0347 75.8742 68.08V72H74.0822V68.248C74.0822 67.6507 73.9608 67.1933 73.7182 66.876C73.4755 66.5587 73.0975 66.4 72.5842 66.4C72.0802 66.4 71.6648 66.5773 71.3382 66.932C71.0208 67.2867 70.8622 67.7813 70.8622 68.416V72H69.0702Z" fill="white"/>
<path d="M64.0969 1.06789C63.9624 1.2287 63.0507 2.65993 62.0642 4.25196C54.0229 17.2134 44.2179 24.8841 31.8421 27.8752C30.9752 28.0842 29.9439 28.3094 29.5403 28.3737C28.3446 28.5667 27.7617 29.5476 28.2549 30.5286C28.5688 31.1718 29.1517 31.2361 30.9752 30.8663C38.2393 29.4029 44.9503 26.2027 50.914 21.3623C52.3339 20.2045 52.5282 20.108 52.7225 20.4778C52.7823 20.5904 53.0663 20.9603 53.3354 21.2819L53.8286 21.8769L54.7254 21.0568L55.6072 20.2205L54.9197 19.3522L54.2321 18.4838L56.0706 16.5058C59.0599 13.3056 62.4677 8.78684 64.3062 5.61886C64.6649 5.00777 64.9937 4.50926 65.0385 4.49318C65.0983 4.49318 65.5617 4.99169 66.0549 5.60278L66.9667 6.71237L66.4435 7.82197C65.5467 9.67131 65.2926 11.6654 65.6813 13.6755C66.7126 18.918 72.1382 21.9895 76.6371 19.915L77.3247 19.5934L77.7581 20.0436C77.9823 20.2849 78.1766 20.5743 78.1766 20.703C78.1766 21.3141 75.3816 26.1223 73.2442 29.1777C71.7944 31.2361 68.267 35.5298 68.0129 35.5298C67.9382 35.5298 67.7439 35.3368 67.5795 35.1117C67.4151 34.8865 67.0414 34.4041 66.7425 34.0664L66.2044 33.4232L65.3076 34.2594L64.4257 35.0795L65.2478 36.0926C65.6962 36.6555 66.0699 37.1862 66.0699 37.2666C66.0699 37.4756 64.3809 38.9229 62.6321 40.2255C57.7745 43.8277 51.8257 46.5132 45.608 47.8962C43.9489 48.2661 43.5005 48.6198 43.5005 49.5204C43.5005 50.2762 43.9937 50.8069 44.6813 50.8069C44.9652 50.8069 45.9667 50.6139 46.9233 50.3888C55.5624 48.2982 62.9161 44.2458 69.1339 38.151C73.1546 34.2111 76.951 28.9204 79.9553 23.1151C81.435 20.2527 81.4649 20.4135 79.2528 17.728C78.072 16.2967 77.7432 16.1842 76.6521 16.8435C76.2186 17.1169 75.4563 17.4546 74.978 17.5993C72.5567 18.3551 69.7019 16.9561 68.6556 14.4957C68.2371 13.5308 67.9681 11.7779 68.1026 10.9417C68.2371 10.1216 68.9396 8.54563 69.4926 7.80589C70.2699 6.7767 70.1951 6.55156 68.1773 4.05899C65.5019 0.714106 65.5916 0.794512 64.919 0.794512C64.5453 0.794512 64.2314 0.890999 64.0969 1.06789Z" fill="white"/>
<path d="M56.5341 23.276C56.1156 23.6941 55.7568 24.0961 55.7568 24.1765C55.7568 24.2408 56.3099 24.9806 56.9675 25.8168C58.3277 27.4892 58.1632 27.4571 59.3291 26.3153C59.8821 25.7846 59.9269 25.6721 59.7625 25.4308C59.3739 24.8519 57.4757 22.5041 57.401 22.5041C57.3561 22.5202 56.9675 22.8579 56.5341 23.276Z" fill="white"/>
<path d="M60.9431 28.7275C60.4797 29.1617 60.1061 29.5476 60.1061 29.5959C60.0911 29.6602 61.8249 31.8955 62.5722 32.78C62.5872 32.8121 63.0206 32.4583 63.5139 31.992L64.4107 31.1558L63.1402 29.5637C62.4228 28.6793 61.8399 27.9717 61.8249 27.9717C61.795 27.9717 61.4064 28.3094 60.9431 28.7275Z" fill="white"/>
<path d="M46.1909 31.027C45.1595 31.5577 43.5603 32.2814 42.6336 32.6512C41.6321 33.0532 40.8549 33.4714 40.7204 33.6643C40.2421 34.4041 40.6008 35.4172 41.4528 35.7388C41.9909 35.9479 48.6869 33.0372 49.4343 32.2814C50.1965 31.5095 49.6136 30.0461 48.5524 30.0782C48.2834 30.0782 47.2222 30.5124 46.1909 31.027Z" fill="white"/>
<path d="M3.42853 31.3325C2.56162 32.2652 3.01002 33.1496 4.77372 34.0341C12.0378 37.6684 20.6321 39.4856 27.9111 38.9388C30.5566 38.7298 33.2321 38.3599 34.0541 38.0865C34.6221 37.8936 34.8314 37.5237 34.8314 36.7679C34.8314 36.398 34.7118 36.1086 34.4577 35.8513C34.0541 35.4331 33.9943 35.4331 30.4968 35.9477C27.9709 36.3176 22.7545 36.3176 20.0641 35.9638C15.5951 35.3527 10.5581 33.7929 6.01429 31.6058C5.17728 31.2038 4.35522 30.8661 4.17586 30.8661C4.01144 30.8661 3.66767 31.0752 3.42853 31.3325Z" fill="white"/>
<path d="M55.1437 35.1116C49.3295 39.148 43.7245 41.7692 37.97 43.1361C35.0704 43.8276 33.232 44.0688 30.1978 44.1492C28.5985 44.1975 27.1338 44.2618 26.9394 44.3101C25.9978 44.5191 25.6839 45.8056 26.4014 46.5775L26.79 46.9956L30.0184 46.8991C34.5772 46.7705 38.4633 46.0629 42.753 44.6156C47.1622 43.104 52.7971 40.129 57.296 36.8966C58.6263 35.9479 58.8654 35.176 58.1031 34.2754C57.5651 33.6483 57.027 33.793 55.1437 35.1116Z" fill="white"/>
<path d="M13.383 41.7693C12.4563 41.9783 12.0677 43.3291 12.7553 44.0206C13.3681 44.6478 20.8862 46.6097 21.7681 46.3685C22.2613 46.2398 22.7247 45.5644 22.7247 44.9855C22.7247 44.1654 22.2165 43.8116 20.5425 43.49C19.0328 43.2005 16.4172 42.5412 14.6535 41.9944C14.1154 41.8336 13.5474 41.7371 13.383 41.7693Z" fill="white"/>
</svg>
