<svg width="30" height="30" viewBox="0 0 30 30" fill="none" xmlns="http://www.w3.org/2000/svg">
<path d="M5.38057 4.94227C4.95127 5.08162 4.21532 5.83065 4.0839 6.27485C4.01381 6.51872 3.97876 7.3984 3.97876 9.00098V11.37L4.19779 11.579C4.32921 11.7184 4.5132 11.7968 4.67967 11.7968C4.84613 11.7968 5.03012 11.7184 5.16154 11.579L5.38057 11.37V9.00969V6.64936L5.59961 6.44033L5.80988 6.22259H8.1842H10.5585L10.7688 6.00485C10.909 5.8742 10.9878 5.6913 10.9878 5.52582C10.9878 5.36033 10.909 5.17743 10.7688 5.04678L10.5585 4.82904L8.12287 4.83775C6.61592 4.84646 5.57332 4.8813 5.38057 4.94227Z" fill="#4A72FF"/>
<path d="M18.2159 5.04679C18.0757 5.17744 17.9968 5.36034 17.9968 5.52583C17.9968 5.69131 18.0757 5.87421 18.2159 6.00486L18.4261 6.2226H20.8005H23.1748L23.385 6.44034L23.6041 6.64937V9.0097V11.37L23.8231 11.5791C24.1035 11.8665 24.5065 11.8665 24.7869 11.5791L25.0059 11.37V9.00099C25.0059 7.39841 24.9708 6.51873 24.9008 6.27486C24.7606 5.79583 24.0334 5.07292 23.5515 4.93357C23.3062 4.86389 22.4213 4.82905 20.8092 4.82905H18.4261L18.2159 5.04679Z" fill="#4A72FF"/>
<path d="M7.0015 7.83389L6.78247 8.04292V10.4032V12.7636L7.0015 12.9726L7.21178 13.1903H9.5861H11.9604L12.1707 12.9726L12.3897 12.7636V10.4032V8.04292L12.1707 7.83389L11.9604 7.61614H9.5861H7.21178L7.0015 7.83389ZM10.9879 10.4032V11.7968H9.5861H8.18428V10.4032V9.00969H9.5861H10.9879V10.4032Z" fill="#4A72FF"/>
<path d="M14.0105 7.83388C13.8704 7.96453 13.7915 8.14743 13.7915 8.31291C13.7915 8.4784 13.8704 8.6613 14.0105 8.79194L14.2208 9.00969H17.5151H20.8006V10.1855C20.8006 11.3265 20.8093 11.3787 21.0196 11.579C21.151 11.7184 21.335 11.7968 21.5015 11.7968C21.6679 11.7968 21.8519 11.7184 21.9833 11.579C22.2024 11.37 22.2024 11.3526 22.2024 9.70646C22.2024 8.06033 22.2024 8.04291 21.9833 7.83388L21.7731 7.61614H17.9969H14.2208L14.0105 7.83388Z" fill="#4A72FF"/>
<path d="M14.0105 10.621C13.8003 10.8213 13.7915 10.891 13.7915 11.7968C13.7915 12.7026 13.8003 12.7723 14.0105 12.9726C14.142 13.112 14.3259 13.1903 14.4924 13.1903C14.6589 13.1903 14.8429 13.112 14.9743 12.9726C15.1846 12.7723 15.1933 12.7026 15.1933 11.7968C15.1933 10.891 15.1846 10.8213 14.9743 10.621C14.8429 10.4816 14.6589 10.4032 14.4924 10.4032C14.3259 10.4032 14.142 10.4816 14.0105 10.621Z" fill="#4A72FF"/>
<path d="M16.814 10.621L16.595 10.83V13.1903V15.5506L16.814 15.7597C16.9454 15.899 17.1294 15.9774 17.2959 15.9774C17.4623 15.9774 17.6463 15.899 17.7778 15.7597C17.9968 15.5506 17.9968 15.5506 17.9968 13.6694V11.7968H18.4787C19.0657 11.7968 19.3986 11.5442 19.3986 11.1C19.3986 10.9345 19.3197 10.7516 19.1796 10.621C18.9781 10.4119 18.908 10.4032 17.9968 10.4032C17.0856 10.4032 17.0155 10.4119 16.814 10.621Z" fill="#4A72FF"/>
<path d="M19.6177 13.4081C19.4775 13.5387 19.3987 13.7216 19.3987 13.8871C19.3987 14.3313 19.7316 14.5839 20.3186 14.5839H20.8005V15.0629C20.8005 15.6464 21.0546 15.9774 21.5014 15.9774C21.6679 15.9774 21.8519 15.899 21.9833 15.7597C22.1935 15.5594 22.2023 15.4897 22.2023 14.5839C22.2023 13.6781 22.1935 13.6084 21.9833 13.4081C21.7818 13.199 21.7117 13.1903 20.8005 13.1903C19.8893 13.1903 19.8192 13.199 19.6177 13.4081Z" fill="#4A72FF"/>
<path d="M7.0015 14.8016C6.86132 14.9323 6.78247 15.1152 6.78247 15.2806C6.78247 15.4461 6.86132 15.629 7.0015 15.7597L7.21178 15.9774H9.23564H11.2595L11.4698 15.7597C11.7589 15.481 11.7589 15.0803 11.4698 14.8016L11.2595 14.5839H9.23564H7.21178L7.0015 14.8016Z" fill="#4A72FF"/>
<path d="M13.3096 14.8016C13.1694 14.9323 13.0906 15.1152 13.0906 15.2806C13.0906 15.4461 13.1694 15.629 13.3096 15.7597C13.4936 15.9513 13.5987 15.9774 14.1419 15.9774C14.6851 15.9774 14.7903 15.9513 14.9743 15.7597C15.1144 15.629 15.1933 15.4461 15.1933 15.2806C15.1933 15.1152 15.1144 14.9323 14.9743 14.8016C14.7903 14.61 14.6851 14.5839 14.1419 14.5839C13.5987 14.5839 13.4936 14.61 13.3096 14.8016Z" fill="#4A72FF"/>
<path d="M7.0015 17.5887L6.78247 17.7977V20.1581V22.5184L7.0015 22.7274L7.21178 22.9452H9.5861H11.9604L12.1707 22.7274L12.3897 22.5184V20.1581V17.7977L12.1707 17.5887L11.9604 17.371H9.5861H7.21178L7.0015 17.5887ZM10.9879 20.1581V21.5516H9.5861H8.18428V20.1581V18.7645H9.5861H10.9879V20.1581Z" fill="#4A72FF"/>
<path d="M14.0105 17.5887L13.7915 17.7978V20.1581V22.5184L14.0105 22.7274C14.2909 23.0148 14.6939 23.0148 14.9743 22.7274L15.1933 22.5184V20.1581V17.7978L14.9743 17.5887C14.8429 17.4494 14.6589 17.371 14.4924 17.371C14.3259 17.371 14.142 17.4494 14.0105 17.5887Z" fill="#4A72FF"/>
<path d="M16.814 17.5887L16.595 17.7977V20.1581V22.5184L16.814 22.7274L17.0243 22.9452H19.3986H21.7729L21.9832 22.7274L22.2022 22.5184V20.1581V17.7977L21.9832 17.5887L21.7729 17.371H19.3986H17.0243L16.814 17.5887ZM20.8004 20.1581V21.5516H19.3986H17.9968V20.1581V18.7645H19.3986H20.8004V20.1581Z" fill="#4A72FF"/>
<path d="M4.19779 18.9823L3.97876 19.1913V21.5603C3.97876 23.1629 4.01381 24.0426 4.0839 24.2865C4.22408 24.7655 4.95127 25.4884 5.43314 25.6278C5.67846 25.6974 6.56335 25.7323 8.17544 25.7323H10.5585L10.7688 25.5145C11.0579 25.2358 11.0579 24.8352 10.7688 24.5565L10.5585 24.3387H8.1842H5.80988L5.59961 24.121L5.38057 23.9119V21.5516V19.1913L5.16154 18.9823C5.03012 18.8429 4.84613 18.7645 4.67967 18.7645C4.5132 18.7645 4.32921 18.8429 4.19779 18.9823Z" fill="#4A72FF"/>
<path d="M23.8231 18.9823L23.6041 19.1913V21.5516V23.9119L23.3851 24.121L23.1748 24.3387H20.8005H18.4261L18.2159 24.5565C17.9267 24.8352 17.9267 25.2358 18.2159 25.5145L18.4261 25.7323H20.8092C22.4213 25.7323 23.3062 25.6974 23.5515 25.6278C24.0334 25.4884 24.7606 24.7655 24.9008 24.2865C24.9709 24.0426 25.0059 23.1629 25.0059 21.5603V19.1913L24.7869 18.9823C24.6554 18.8429 24.4715 18.7645 24.305 18.7645C24.1385 18.7645 23.9545 18.8429 23.8231 18.9823Z" fill="#4A72FF"/>
</svg>
