<svg width="60" height="20" viewBox="0 0 60 20" fill="none" xmlns="http://www.w3.org/2000/svg">
<g clip-path="url(#clip0_5_1695)">
<path d="M26.0001 19.675H21.1397L24.1798 0.386902H29.0399L26.0001 19.675Z" fill="#042F82"/>
<path d="M43.6193 0.858587C42.6606 0.468319 41.14 0.0374146 39.2599 0.0374146C34.4601 0.0374146 31.0801 2.66375 31.0593 6.41861C31.0194 9.18897 33.4793 10.7277 35.319 11.6514C37.1995 12.5953 37.8387 13.2114 37.8387 14.0527C37.8196 15.3448 36.3192 15.9405 34.9199 15.9405C32.9794 15.9405 31.9396 15.6334 30.3595 14.9145L29.7195 14.6063L29.0394 18.9361C30.1793 19.469 32.2796 19.9419 34.4601 19.9627C39.5599 19.9627 42.8801 17.3769 42.9195 13.3756C42.9389 11.1798 41.64 9.49743 38.8397 8.12259C37.1397 7.24007 36.0986 6.64497 36.0986 5.74199C36.1185 4.92108 36.9792 4.08028 38.8981 4.08028C40.4782 4.0391 41.6392 4.42882 42.5187 4.81881L42.9583 5.02363L43.6193 0.858587Z" fill="#042F82"/>
<path d="M50.0794 12.8419C50.4796 11.7338 52.0198 7.44527 52.0198 7.44527C51.9996 7.48643 52.4193 6.31674 52.6593 5.59866L52.999 7.26062C52.999 7.26062 53.9194 11.8776 54.1193 12.8419C53.3597 12.8419 51.0394 12.8419 50.0794 12.8419ZM56.0789 0.386902H52.3194C51.16 0.386902 50.2793 0.735443 49.779 1.98725L42.5595 19.6748H47.6594C47.6594 19.6748 48.499 17.2942 48.6794 16.7815C49.2389 16.7815 54.2001 16.7815 54.9198 16.7815C55.0594 17.4586 55.4998 19.6748 55.4998 19.6748H60.0001L56.0789 0.386902Z" fill="#042F82"/>
<path d="M17.0799 0.386902L12.3199 13.5396L11.7998 10.872C10.9197 7.79411 8.15986 4.44995 5.07993 2.78715L9.43986 19.6546H14.5796L22.2193 0.386902H17.0799Z" fill="#042F82"/>
<path d="M7.89994 0.386902H0.0800013L0 0.776624C6.10005 2.37724 10.14 6.23547 11.7998 10.8729L10.0999 2.00825C9.82 0.776353 8.95987 0.427538 7.89994 0.386902Z" fill="#FAA61A"/>
</g>
<defs>
<clipPath id="clip0_5_1695">
<rect width="60" height="20" fill="white"/>
</clipPath>
</defs>
</svg>
